<?xml version="1.0" encoding="iso-8859-1"?>
<!-- Generator: Adobe Illustrator 19.0.0, SVG Export Plug-In . SVG Version: 6.00 Build 0)  -->
<svg version="1.1" id="Capa_1" xmlns="http://www.w3.org/2000/svg" xmlns:xlink="http://www.w3.org/1999/xlink" x="0px" y="0px"
	 viewBox="0 0 511.639 511.639" style="enable-background:new 0 0 511.639 511.639;" xml:space="preserve">
<g>
	<g>
		<path d="M154.571,384.761l-79.944-71.949c-1.226-1.094-2.966-1.328-4.442-0.625c-1.467,0.726-2.35,2.263-2.217,3.903
			l7.994,103.926c0.156,2.092,1.905,3.686,3.974,3.686c0.11,0,0.211,0,0.313-0.015c2.201-0.164,3.849-2.093,3.677-4.295
			l-7.222-93.965l72.512,65.267c1.654,1.483,4.169,1.35,5.652-0.296C156.342,388.758,156.21,386.228,154.571,384.761z"/>
	</g>
</g>
<g>
	<g>
		<path d="M259.434,505.94c-3.216-6.846-14.685-8.947-32.04-12.116c-36.459-6.675-97.47-17.847-119.681-83.395
			c-0.703-2.093-2.982-3.216-5.067-2.506c-2.092,0.71-3.216,2.974-2.506,5.066c23.726,70.014,87.634,81.709,125.81,88.688
			c11.617,2.132,24.78,4.544,26.255,7.667c0.679,1.451,2.116,2.295,3.615,2.295c0.569,0,1.155-0.125,1.702-0.375
			C259.52,510.32,260.379,507.939,259.434,505.94z"/>
	</g>
</g>
<g>
	<g>
		<path d="M243.804,459.278c-0.219-2.194-2.209-3.772-4.372-3.584c-0.773,0.071-77.391,6.903-107.331-61.573
			c-0.882-2.023-3.24-2.944-5.262-2.062c-2.022,0.883-2.943,3.241-2.061,5.262c26.762,61.23,88.071,66.57,108.611,66.57
			c4.201,0,6.699-0.218,6.839-0.234C242.423,463.439,244.03,461.471,243.804,459.278z"/>
	</g>
</g>
<g>
	<g>
		<path d="M242.658,217.02l-15.988-15.989c-0.75-0.749-1.764-1.171-2.826-1.171h-77.852c-2.209,0-3.997,1.788-3.997,3.997
			c0,2.21,1.788,3.998,3.997,3.998h76.196l13.646,13.646v160.527c0,2.209,1.788,3.997,3.997,3.997c2.21,0,3.997-1.788,3.998-3.996
			V219.846C243.829,218.785,243.408,217.769,242.658,217.02z"/>
	</g>
</g>
<g>
	<g>
		<path d="M239.83,418.603c-2.209,0-3.997,1.788-3.997,3.997v37.077c0,2.209,1.788,3.996,3.997,3.996
			c2.21,0,3.997-1.788,3.998-3.997V422.6C243.829,420.391,242.04,418.603,239.83,418.603z"/>
	</g>
</g>
<g>
	<g>
		<path d="M152.548,383.784l-47.966-7.994c-1.593-0.25-3.24,0.477-4.083,1.882l-23.983,39.972c-1.14,1.896-0.523,4.356,1.374,5.488
			c0.641,0.382,1.351,0.57,2.054,0.57c1.351,0,2.678-0.688,3.426-1.936l22.586-37.646l45.28,7.549
			c2.132,0.391,4.232-1.099,4.599-3.286C156.202,386.204,154.726,384.151,152.548,383.784z"/>
	</g>
</g>
<g>
	<g>
		<path d="M441.454,312.186c-1.467-0.703-3.216-0.469-4.442,0.625l-79.943,71.949c-1.64,1.467-1.773,3.997-0.297,5.637
			c1.483,1.639,4.005,1.764,5.652,0.296l72.511-65.267l-7.222,93.965c-0.171,2.202,1.477,4.131,3.678,4.295
			c0.101,0.016,0.203,0.016,0.312,0.016c2.06,0,3.817-1.594,3.974-3.686l7.994-103.927
			C443.804,314.45,442.922,312.913,441.454,312.186z"/>
	</g>
</g>
<g>
	<g>
		<path d="M408.993,407.923c-2.076-0.718-4.364,0.413-5.066,2.506c-22.43,66.204-83.98,77.352-120.751,84.019
			c-17.3,3.138-27.746,5.036-30.932,11.406c-0.983,1.975-0.187,4.38,1.788,5.363c0.578,0.281,1.186,0.422,1.788,0.422
			c1.46,0,2.873-0.812,3.575-2.21c1.397-2.795,14.045-5.083,25.209-7.112c38.504-6.979,102.952-18.659,126.895-89.328
			C412.21,410.898,411.085,408.633,408.993,407.923z"/>
	</g>
</g>
<g>
	<g>
		<path d="M384.799,392.059c-2.015-0.881-4.372,0.04-5.263,2.062c-29.885,68.366-104.161,61.885-107.338,61.573
			c-2.147-0.179-4.145,1.39-4.364,3.592c-0.219,2.185,1.382,4.153,3.576,4.371c0.14,0.015,2.631,0.234,6.838,0.234
			c20.549,0,81.857-5.347,108.612-66.57C387.742,395.299,386.82,392.942,384.799,392.059z"/>
	</g>
</g>
<g>
	<g>
		<path d="M373.876,199.859h-86.08c-1.062,0-2.077,0.422-2.826,1.171l-15.989,15.989c-0.749,0.749-1.171,1.764-1.171,2.826v165.087
			c0,2.209,1.788,3.996,3.997,3.996c2.21,0,3.997-1.787,3.997-3.996V221.5l13.646-13.646h84.426c2.209,0,3.996-1.788,3.996-3.998
			C377.873,201.647,376.086,199.859,373.876,199.859z"/>
	</g>
</g>
<g>
	<g>
		<path d="M271.808,421.61c-2.209,0-3.997,1.788-3.997,3.997v34.07c0,2.209,1.788,3.996,3.997,3.996c2.21,0,3.997-1.788,3.997-3.996
			v-34.07C275.805,423.398,274.017,421.61,271.808,421.61z"/>
	</g>
</g>
<g>
	<g>
		<path d="M373.861,167.882h-84.41l-14.817-14.817c-1.561-1.562-4.09-1.561-5.652,0s-1.562,4.09,0,5.652l15.989,15.988
			c0.749,0.75,1.764,1.172,2.826,1.172h86.064c2.209,0,3.996-1.788,3.996-3.998C377.858,169.67,376.071,167.882,373.861,167.882z"/>
	</g>
</g>
<g>
	<g>
		<path d="M242.655,153.065c-1.561-1.562-4.09-1.562-5.652,0l-14.817,14.817h-76.54c-2.209,0-3.997,1.788-3.997,3.997
			c0,2.21,1.788,3.998,3.997,3.998h78.195c1.062,0,2.077-0.422,2.826-1.172l15.988-15.988
			C244.217,157.156,244.216,154.627,242.655,153.065z"/>
	</g>
</g>
<g>
	<g>
		<path d="M435.121,417.644l-23.983-39.972c-0.843-1.405-2.49-2.155-4.082-1.882l-47.967,7.994c-2.178,0.368-3.653,2.42-3.287,4.599
			c0.368,2.186,2.476,3.677,4.599,3.286l45.28-7.549l22.586,37.645c0.75,1.249,2.077,1.937,3.428,1.937
			c0.702,0,1.413-0.188,2.052-0.57C435.645,422,436.262,419.54,435.121,417.644z"/>
	</g>
</g>
<g>
	<g>
		<path d="M151.72,192.091c-2.045-0.711-4.356,0.363-5.098,2.439c-2.81,7.97-10.383,13.323-18.838,13.323
			c-11.023,0-19.985-8.967-19.985-19.986c0-11.019,8.962-19.986,19.985-19.986c8.447,0,16.013,5.349,18.846,13.308
			c0.734,2.076,3.029,3.146,5.098,2.428c2.085-0.737,3.17-3.025,2.428-5.105c-3.95-11.141-14.552-18.624-26.372-18.624
			c-15.427,0-27.98,12.554-27.98,27.98c0,15.426,12.553,27.98,27.98,27.98c11.844,0,22.437-7.499,26.379-18.655
			C154.898,195.109,153.804,192.828,151.72,192.091z"/>
	</g>
</g>
<g>
	<g>
		<path d="M391.723,159.887c-11.851,0.008-22.452,7.507-26.379,18.659c-0.735,2.08,0.358,4.365,2.443,5.098
			c2.084,0.722,4.365-0.363,5.098-2.443c2.803-7.959,10.376-13.311,18.838-13.319c11.023,0,19.986,8.967,19.986,19.986
			c0,11.019-8.963,19.986-19.986,19.986c-0.008,0-0.016,0-0.016,0c-8.438,0-16.004-5.345-18.822-13.304
			c-0.749-2.088-3.021-3.17-5.105-2.432c-2.085,0.738-3.17,3.022-2.436,5.102c3.95,11.145,14.543,18.628,26.355,18.628
			c0.008,0,0.016,0,0.024-0.001c15.427,0,27.98-12.554,27.98-27.98C419.704,172.441,407.152,159.887,391.723,159.887z"/>
	</g>
</g>
<g>
	<g>
		<path d="M294.283,80.888c-1.664-1.48-4.177-1.323-5.645,0.324c-6.651,7.46-15.7,12.471-25.489,14.111
			c-2.178,0.368-3.646,2.428-3.279,4.602c0.329,1.956,2.022,3.338,3.935,3.338c0.219,0,0.446-0.015,0.67-0.054
			c11.57-1.941,22.274-7.862,30.128-16.68C296.072,84.881,295.931,82.356,294.283,80.888z"/>
	</g>
</g>
<g>
	<g>
		<path d="M307.041,43.215C302.795,18.175,281.246,0,255.819,0c-28.652,0-51.964,23.312-51.964,51.963
			c0,25.486,18.214,47.041,43.306,51.245c0.226,0.039,0.453,0.055,0.671,0.055c1.913,0,3.607-1.381,3.935-3.337
			c0.367-2.178-1.101-4.235-3.279-4.602c-21.227-3.556-36.638-21.793-36.638-43.36c0-24.244,19.728-43.969,43.969-43.969
			c21.516,0,39.745,15.376,43.338,36.555c0.374,2.182,2.498,3.63,4.613,3.275C305.939,47.454,307.408,45.39,307.041,43.215z"/>
	</g>
</g>
<g>
	<g>
		<path d="M272.947,29.843c-4.949-3.833-10.867-5.859-17.128-5.859c-15.426,0-27.98,12.554-27.98,27.98
			c0,15.426,12.553,27.98,27.98,27.98c4.638,0,9.235-1.159,13.288-3.358c1.936-1.05,2.662-3.474,1.608-5.418
			c-1.046-1.947-3.482-2.646-5.418-1.608c-2.928,1.585-6.122,2.39-9.478,2.39c-11.023,0-19.986-8.968-19.986-19.987
			s8.963-19.985,19.986-19.985c4.474,0,8.697,1.444,12.226,4.181c1.757,1.354,4.262,1.042,5.613-0.711
			C275.009,33.703,274.689,31.194,272.947,29.843z"/>
	</g>
</g>
<g>
	<g>
		<path d="M255.819,55.96c-2.203,0-3.998-1.791-3.998-3.997c0-2.205,1.796-3.997,3.998-3.997c2.209,0,3.997-1.788,3.997-3.997
			c0-2.21-1.788-3.997-3.997-3.997c-6.613,0-11.992,5.38-11.992,11.992s5.379,11.991,11.992,11.991c2.209,0,3.997-1.787,3.997-3.998
			C259.816,57.748,258.029,55.96,255.819,55.96z"/>
	</g>
</g>
<g>
	<g>
		<path d="M239.83,93.208c-2.209,0-3.997,1.788-3.997,3.997v58.685c0,2.209,1.788,3.997,3.997,3.997c2.21,0,3.997-1.788,3.998-3.996
			V97.205C243.829,94.996,242.04,93.208,239.83,93.208z"/>
	</g>
</g>
<g>
	<g>
		<path d="M271.808,93.208c-2.209,0-3.997,1.788-3.997,3.997v58.685c0,2.209,1.788,3.997,3.997,3.997
			c2.21,0,3.997-1.788,3.997-3.996V97.205C275.805,94.996,274.017,93.208,271.808,93.208z"/>
	</g>
</g>
<g>
	<g>
		<path d="M270.637,173.051c-1.561-1.562-4.09-1.562-5.652,0l-23.983,23.982c-1.562,1.561-1.562,4.09,0,5.652
			c0.781,0.781,1.803,1.171,2.826,1.171s2.046-0.39,2.826-1.171l23.983-23.982C272.199,177.142,272.197,174.613,270.637,173.051z"/>
	</g>
</g>
<g>
	<g>
		<path d="M270.637,197.033l-23.983-23.982c-1.561-1.562-4.091-1.562-5.652,0c-1.562,1.561-1.562,4.09,0,5.652l23.983,23.982
			c0.781,0.781,1.804,1.171,2.826,1.171c1.023,0,2.045-0.39,2.826-1.171C272.199,201.124,272.199,198.595,270.637,197.033z"/>
	</g>
</g>
<g>
	<g>
		<path d="M255.82,39.973c-2.21,0-3.998,1.787-3.998,3.997c0,2.209,1.788,3.997,3.998,3.997c46.287,0,83.94,37.657,83.94,83.94
			c0,2.21,1.788,3.997,3.997,3.997c2.209,0,3.997-1.787,3.998-3.996C347.755,81.213,306.51,39.973,255.82,39.973z"/>
	</g>
</g>
<g>
	<g>
		<path d="M255.819,55.961c-2.21,0-3.998,1.788-3.998,3.997c0,2.21,1.788,3.997,3.998,3.997c37.466,0,67.952,30.482,67.952,67.952
			c0,2.21,1.787,3.997,3.997,3.997c2.209,0,3.997-1.787,3.997-3.997C331.765,90.031,297.696,55.961,255.819,55.961z"/>
	</g>
</g>
<g>
	<g>
		<path d="M343.757,127.909c-2.209,0-3.997,1.788-3.997,3.997c0,7.781-1.061,15.482-3.162,22.895
			c-0.6,2.127,0.641,4.333,2.764,4.934c0.359,0.105,0.727,0.152,1.086,0.152c1.748,0,3.349-1.147,3.848-2.909
			c2.295-8.123,3.458-16.558,3.458-25.072C347.754,129.697,345.966,127.909,343.757,127.909z"/>
	</g>
</g>
<g>
	<g>
		<path d="M327.767,127.91c-2.21,0-3.997,1.788-3.997,3.997c0,7.784-1.297,15.407-3.865,22.66c-0.733,2.08,0.36,4.365,2.437,5.098
			c0.444,0.156,0.89,0.23,1.335,0.23c1.647,0,3.186-1.022,3.77-2.666c2.865-8.107,4.317-16.629,4.317-25.322
			C331.764,129.698,329.977,127.91,327.767,127.91z"/>
	</g>
</g>
<g>
	<g>
		<path d="M203.754,217.71c-1.179-1.873-3.661-2.424-5.512-1.245c-31.525,19.9-50.347,54.032-50.347,91.318
			c0,2.21,1.788,3.997,3.997,3.997s3.997-1.787,3.998-3.996c0-34.523,17.425-66.133,46.615-84.558
			C204.371,222.047,204.934,219.58,203.754,217.71z"/>
	</g>
</g>
<g>
	<g>
		<path d="M228.379,224.104c-0.781-2.061-3.099-3.107-5.153-2.323c-35.498,13.44-59.341,47.998-59.341,86.002
			c0,2.21,1.788,3.997,3.997,3.997s3.997-1.787,3.997-3.998c0-34.694,21.775-66.253,54.173-78.522
			C228.121,228.476,229.16,226.168,228.379,224.104z"/>
	</g>
</g>
<g>
	<g>
		<path d="M255.819,407.713c-55.102,0-99.93-44.827-99.93-99.93c0-2.209-1.788-3.997-3.997-3.997s-3.997,1.788-3.997,3.997
			c0,59.505,48.411,107.924,107.924,107.924c2.209,0,3.997-1.788,3.997-3.997C259.816,409.501,258.028,407.713,255.819,407.713z"/>
	</g>
</g>
<g>
	<g>
		<path d="M255.819,391.722c-46.288,0-83.941-37.66-83.941-83.94c0-2.209-1.787-3.997-3.997-3.997c-2.209,0-3.997,1.788-3.997,3.997
			c0,50.699,41.245,91.936,91.936,91.936c2.209,0,3.997-1.788,3.996-3.998C259.816,393.51,258.027,391.722,255.819,391.722z"/>
	</g>
</g>
<g>
	<g>
		<path d="M336.263,432.336c-18.784-25.426-48.856-40.604-80.459-40.604c-2.21,0-3.997,1.788-3.997,3.998
			c0,2.209,1.787,3.997,3.997,3.997c29.073,0,56.749,13.966,74.025,37.356c0.789,1.062,1.991,1.624,3.217,1.624
			c0.827,0,1.663-0.25,2.373-0.781C337.2,436.614,337.575,434.116,336.263,432.336z"/>
	</g>
</g>
<g>
	<g>
		<path d="M321.165,438.925c-16.021-19.829-39.84-31.212-65.345-31.212c-2.21,0-3.998,1.788-3.998,3.997
			c0,2.209,1.788,3.997,3.998,3.997c23.077,0,44.632,10.29,59.13,28.246c0.789,0.975,1.943,1.483,3.107,1.483
			c0.882,0,1.772-0.289,2.514-0.89C322.288,443.157,322.553,440.643,321.165,438.925z"/>
	</g>
</g>
<g>
</g>
<g>
</g>
<g>
</g>
<g>
</g>
<g>
</g>
<g>
</g>
<g>
</g>
<g>
</g>
<g>
</g>
<g>
</g>
<g>
</g>
<g>
</g>
<g>
</g>
<g>
</g>
<g>
</g>
</svg>
