<?xml version="1.0" encoding="iso-8859-1"?>
<!-- Generator: Adobe Illustrator 19.0.0, SVG Export Plug-In . SVG Version: 6.00 Build 0)  -->
<svg version="1.1" id="Layer_1" xmlns="http://www.w3.org/2000/svg" xmlns:xlink="http://www.w3.org/1999/xlink" x="0px" y="0px"
	 viewBox="0 0 511.999 511.999" style="enable-background:new 0 0 511.999 511.999;" xml:space="preserve">
<g>
	<g>
		<path d="M317.193,132.84c0.373,0.006,0.755,0.032,1.125,0.032c1.966,0,3.886-0.095,5.748-0.286
			c11.653-1.204,20.058-6.063,23.887-13.752c12.138-6.845,21.924-8.788,29.852-5.916c15.645,5.664,24.592,30.763,32.484,52.907
			c8.51,23.872,16.546,46.419,34.077,50.367c1.686,0.38,3.401,0.57,5.148,0.57c9.819,0,20.628-6.017,32.866-18.252
			c3.037-3.039,3.039-8.115,0-11.152c-3.038-3.037-8.115-3.036-11.152,0c-9.994,9.995-18.084,14.653-23.397,13.45
			c-9.056-2.039-16.297-22.354-22.685-40.277c-9.063-25.427-19.337-54.247-41.972-62.442c-10.345-3.743-21.772-2.806-34.693,2.857
			c-2.42-6.58-7.491-13.232-14.976-19.286c-0.087-0.07-0.181-0.13-0.27-0.198C332.099,36.352,295.079,0,249.701,0
			c-46.089,0-83.586,37.496-83.586,83.586c0,24.928,11.131,48.024,29.381,63.61H174c-4.355,0-7.886,3.53-7.886,7.885v50.467
			c0,4.356,3.531,7.885,7.886,7.885h42.582v184.021c-37.145-4.947-59.233-17.922-71.438-28.321
			c-11.53-9.822-16.503-19.131-17.932-22.195v-19.953h25.759c3.271,0,6.272-2.096,7.4-5.166c1.166-3.172,0.13-6.832-2.528-8.921
			l-58.878-46.262c-2.86-2.247-6.885-2.247-9.744,0l-58.878,46.262c-2.658,2.089-3.694,5.749-2.528,8.921
			c1.128,3.069,4.129,5.166,7.4,5.166h25.759v38.376c0,78.686,58.962,96.035,110.982,111.341
			c28.528,8.393,55.473,16.322,72.169,33.019c3.036,3.036,8.116,3.034,11.152,0c16.696-16.697,43.642-24.626,72.169-33.019
			c52.02-15.307,110.982-32.657,110.982-111.341v-38.376h25.759c3.27,0,6.272-2.096,7.4-5.166c1.165-3.172,0.13-6.832-2.528-8.921
			l-58.878-46.262c-2.861-2.247-6.884-2.247-9.744,0l-58.878,46.262c-2.643,2.078-3.679,5.601-2.58,8.778
			c1.099,3.177,4.091,5.309,7.452,5.309h25.759v19.982c-3.027,6.622-22.067,41.575-89.369,50.49v-124.62
			c0-4.356-3.53-7.886-7.885-7.886s-7.885,3.53-7.885,7.886v133.442c0,4.569,4.063,8.286,8.618,7.852
			c91.37-8.533,111.04-60.721,111.832-62.938c0.304-0.853,0.461-1.75,0.461-2.654v-29.439c0-4.356-3.53-7.885-7.885-7.885h-10.845
			l36.079-28.348l36.078,28.347h-10.845c-4.356,0-7.886,3.53-7.886,7.885v46.262c0,66.887-48.41,81.131-99.662,96.213
			c-26.519,7.804-53.862,15.849-73.293,31.93c-19.432-16.081-46.774-24.126-73.293-31.93
			c-51.253-15.081-99.662-29.326-99.662-96.213V319.1c0-4.356-3.531-7.885-7.886-7.885H58.015l36.079-28.348l36.079,28.348h-10.845
			c-4.355,0-7.885,3.53-7.885,7.885v29.439c0,0.904,0.156,1.802,0.461,2.654c0.793,2.217,20.461,54.405,111.832,62.938
			c4.556,0.417,8.618-3.271,8.618-7.852v-200.73c0-4.356-3.531-7.885-7.885-7.885h-42.582v-34.696h42.582
			c3.804,0,7.146-2.827,7.776-6.579c0.633-3.77-1.52-7.578-5.148-8.861c-27.042-9.56-45.21-35.257-45.21-63.941
			c0-37.393,30.422-67.815,67.815-67.815c37.393,0,67.815,30.422,67.815,67.815c0,11.682-3.014,22.868-8.413,32.67
			c-4.717-0.813-9.635-2.203-14.438-4.119c-3.748-1.495-7.324-3.274-10.609-5.245c4.525-6.65,7.175-14.673,7.175-23.306
			c0-22.9-18.631-41.53-41.53-41.53s-41.53,18.631-41.53,41.53s18.631,41.53,41.53,41.53c8.426,0,16.268-2.529,22.823-6.857
			c4.903,3.281,10.406,6.176,16.297,8.526c3.369,1.345,6.767,2.454,10.148,3.361c-7.236,7.67-16.294,13.714-26.663,17.381
			c-3.634,1.285-5.773,5.089-5.148,8.861c0.622,3.751,3.979,6.579,7.776,6.579h42.582v34.696h-42.582
			c-4.356,0-7.885,3.53-7.885,7.886v33.645c0,4.356,3.53,7.885,7.885,7.885s7.885-3.53,7.885-7.885v-25.758h42.582
			c4.356,0,7.885-3.53,7.885-7.885v-50.467c0-4.356-3.53-7.885-7.885-7.885h-21.495C308.896,142.935,313.349,138.109,317.193,132.84
			z M331.255,101.88c2.836,4.056,3.569,7.489,2.75,9.541c-0.839,2.104-3.493,3.783-7.361,4.755
			C328.594,111.585,330.147,106.805,331.255,101.88z M249.701,109.345c-14.204,0.001-25.759-11.554-25.759-25.758
			c0-14.204,11.556-25.759,25.759-25.759c7.014,0,13.379,2.821,18.028,7.383c-7.691,2.514-13.234,7.168-15.752,13.48
			c-3.431,8.596-0.842,18.553,7.288,28.039c0.163,0.19,0.338,0.376,0.504,0.566C256.675,108.613,253.272,109.345,249.701,109.345z
			 M271.697,96.978c-0.151-0.17-0.31-0.341-0.457-0.512c-4.006-4.674-5.73-9.134-4.615-11.931c0.92-2.306,4.049-4.098,8.512-5.011
			c0.21,1.324,0.323,2.68,0.323,4.063C275.46,88.488,274.082,93.073,271.697,96.978z"/>
	</g>
</g>
<g>
</g>
<g>
</g>
<g>
</g>
<g>
</g>
<g>
</g>
<g>
</g>
<g>
</g>
<g>
</g>
<g>
</g>
<g>
</g>
<g>
</g>
<g>
</g>
<g>
</g>
<g>
</g>
<g>
</g>
</svg>
