<svg id="Glyph" height="512" viewBox="0 0 512 512" width="512" xmlns="http://www.w3.org/2000/svg"><path d="m240 176h32v48h-32z"/><path d="m320 208h16v16h-16z"/><path d="m288 176h16v16h-16z"/><path d="m208 176h16v16h-16z"/><path d="m208 208h16v16h-16z"/><path d="m128 176h32v48h-32z"/><path d="m176 208h16v16h-16z"/><path d="m288 208h16v16h-16z"/><path d="m176 80h160v32h-160z"/><path d="m72 128h368v32h-368z"/><path d="m400 208h40v16h-40z"/><path d="m400 176h40v16h-40z"/><path d="m320 176h16v16h-16z"/><path d="m72 176h40v16h-40z"/><path d="m352 176h32v48h-32z"/><path d="m288 320h16v16h-16z"/><path d="m240 288h32v48h-32z"/><path d="m72 208h40v16h-40z"/><path d="m440 289.013v-1.013h-40v16h20.305a32.12 32.12 0 0 1 19.695-14.987z"/><path d="m288 288h16v16h-16z"/><path d="m320 288h16v16h-16z"/><path d="m320 320h16v16h-16z"/><path d="m418.656 332.8a31.807 31.807 0 0 1 -2.656-12.8h-16v16h15.978a40.015 40.015 0 0 1 2.678-3.2z"/><path d="m352 288h32v48h-32z"/><path d="m208 320h16v16h-16z"/><path d="m72 447.321v.679h56v-16h-28.261a47.974 47.974 0 0 1 -27.739 15.321z"/><path d="m112 320h-16a31.807 31.807 0 0 1 -2.656 12.8 40.015 40.015 0 0 1 2.678 3.2h15.978z"/><path d="m136 402.245-17.194 13.755h34.388z"/><path d="m72 240h368v32h-368z"/><path d="m176 288h16v16h-16z"/><path d="m176 320h16v16h-16z"/><path d="m128 288h32v48h-32z"/><path d="m408.816 368a39.945 39.945 0 0 1 -.816-8 40.535 40.535 0 0 1 .8-8h-305.6a40.535 40.535 0 0 1 .8 8 39.945 39.945 0 0 1 -.816 8z"/><path d="m208 288h16v16h-16z"/><path d="m91.7 304h20.3v-16h-40v1.013a32.12 32.12 0 0 1 19.7 14.987z"/><path d="m470 369.6a24.006 24.006 0 0 0 -7.6-28.806 8 8 0 0 1 -1.592-11.2 15.851 15.851 0 0 0 3.192-9.594 16 16 0 0 0 -32 0 15.851 15.851 0 0 0 3.2 9.6 8 8 0 0 1 -1.592 11.2 24.006 24.006 0 0 0 -7.608 28.8 8 8 0 0 1 -1.464 8.647 31.993 31.993 0 0 0 15.464 52.74v-22.987a8 8 0 0 1 16 0v22.987a31.993 31.993 0 0 0 15.461-52.738 8 8 0 0 1 -1.461-8.649z"/><path d="m232 416h16v64h-16z"/><path d="m72 464h112v16h-112z"/><path d="m72 430.987a31.993 31.993 0 0 0 15.461-52.738 8 8 0 0 1 -1.461-8.649 24.006 24.006 0 0 0 -7.6-28.8 8 8 0 0 1 -1.6-11.2 15.851 15.851 0 0 0 3.2-9.6 16 16 0 0 0 -32 0 15.851 15.851 0 0 0 3.2 9.6 8 8 0 0 1 -1.6 11.2 24.006 24.006 0 0 0 -7.6 28.8 8 8 0 0 1 -1.464 8.647 31.993 31.993 0 0 0 15.464 52.74v-22.987a8 8 0 0 1 16 0z"/><path d="m264 416h16v64h-16z"/><path d="m328 464h112v16h-112z"/><path d="m412.261 432h-28.261v16h56v-.679a47.974 47.974 0 0 1 -27.739-15.321z"/><path d="m358.806 416h34.388l-17.194-13.755z"/><path d="m368 432h-32a8 8 0 0 1 -5-14.247l40-32a8 8 0 0 1 10 0l19.027 15.222c-.007-.326-.025-.648-.025-.975a47.955 47.955 0 0 1 2.747-16h-293.496a47.955 47.955 0 0 1 2.747 16c0 .327-.018.649-.025.975l19.025-15.222a8 8 0 0 1 10 0l40 32a8 8 0 0 1 -5 14.247h-32v16h48a8 8 0 0 1 8 8v24h16v-72a8 8 0 0 1 8-8h64a8 8 0 0 1 8 8v72h16v-24a8 8 0 0 1 8-8h48z"/><path d="m176 176h16v16h-16z"/><path d="m24 464a8 8 0 0 0 0 16h32v-16z"/><path d="m488 464h-32v16h32a8 8 0 0 0 0-16z"/></svg>