<svg height="496pt" viewBox="0 -24 496 496" width="496pt" xmlns="http://www.w3.org/2000/svg"><path d="m493.535156 194.234375-53.535156-51.402344v-62.832031c-.027344-22.078125-17.917969-39.972656-40-40h-67.105469l-39.359375-37.773438c-3.09375-2.96875-7.976562-2.96875-11.070312 0l-39.359375 37.773438h-99.105469c-22.082031.027344-39.972656 17.921875-40 40v32c0 4.417969 3.582031 8 8 8h24v22.832031l-53.535156 51.402344c-1.582032 1.5-2.472656 3.585937-2.464844 5.765625v240c0 4.417969 3.582031 8 8 8h400c4.417969 0 8-3.582031 8-8v-240c-.003906-2.175781-.898438-4.253906-2.480469-5.75zm-53.535156-29.226563 28.121094 26.992188h-28.121094zm0 42.992188h23.199219l-23.199219 16.703125zm-64-96v-32c0-13.253906 10.746094-24 24-24s24 10.746094 24 24v156.226562l-136 97.917969-136-97.917969v-116.226562h216c4.417969 0 8-3.582031 8-8zm-88-92.910156 21.792969 20.910156h-43.585938zm-168 84.910156v-24c0-13.253906 10.746094-24 24-24h224.207031c-5.292969 6.882812-8.175781 15.316406-8.207031 24v24zm16 61.007812v26.992188h-28.121094zm0 42.992188v16.703125l-23.199219-16.703125zm-40 7.617188 154.710938 111.390624-154.710938 98.417969zm19.488281 216.382812 149.214844-94.917969 18.625 13.414063c2.789063 2.007812 6.554687 2.007812 9.34375 0l18.625-13.414063 149.214844 94.917969zm364.511719-6.574219-154.710938-98.402343 154.710938-111.40625zm0 0"/><path d="m200 192h160v16h-160zm0 0"/><path d="m200 160h160v16h-160zm0 0"/><path d="m200 224h160v16h-160zm0 0"/><path d="m0 104h80v16h-80zm0 0"/><path d="m24 136h88v16h-88zm0 0"/></svg>