<svg id="Capa_1" enable-background="new 0 0 512 512" height="512" viewBox="0 0 512 512" width="512" xmlns="http://www.w3.org/2000/svg"><g><path d="m502 325.78h-18.139v-219.207c0-39.244-31.946-71.171-71.213-71.171h-21.088v-.119c0-15.595-12.694-28.283-28.295-28.283h-77.438c-15.603 0-28.296 12.688-28.296 28.283v.119h-76.868v-.119c-.001-15.595-12.694-28.283-28.296-28.283h-77.438c-15.603 0-28.296 12.688-28.296 28.283v.119h-36.633c-5.523 0-10 4.478-10 10s4.477 10 10 10h36.633v.148c0 12.078 7.615 22.406 18.296 26.453v39.447c-26.041 16.283-43.399 45.2-43.399 78.097v91.104c0 5.522 4.477 10 10 10s10-4.478 10-10v-91.104c0-27.211 15.176-50.943 37.512-63.202.358-.162.702-.346 1.036-.547 10.034-5.297 21.454-8.312 33.57-8.312 12.117 0 23.538 3.015 33.573 8.313.332.2.675.383 1.03.544 22.337 12.259 37.514 35.992 37.514 63.204v11.004h-63.154c-20.467 0-37.118 16.643-37.118 37.1v125.658c0 20.456 16.651 37.099 37.118 37.099h63.154v61.177c0 7.396-6.024 13.414-13.43 13.414h-117.376c-7.405 0-13.43-6.018-13.43-13.414v-91.104c0-5.522-4.477-10-10-10s-10 4.478-10 10v91.104c0 18.425 14.997 33.414 33.43 33.414h117.376c18.433 0 33.43-14.989 33.43-33.414v-40.172h26.662v40.172c0 18.425 14.997 33.414 33.43 33.414h117.376c18.434 0 33.43-14.989 33.43-33.414v-272.036c0-32.896-17.358-61.813-43.398-78.097v-39.448c10.68-4.048 18.295-14.376 18.295-26.453v-.148h21.089c28.239 0 51.213 22.955 51.213 51.171v219.206h-18.139c-5.522 0-10 4.478-10 10v81.268c0 21.02 17.109 38.12 38.139 38.12s38.138-17.101 38.138-38.12v-81.268c0-5.522-4.478-10-10-10zm-316.234 64.629h-63.154c-9.438 0-17.118-7.671-17.118-17.099v-125.658c0-9.429 7.679-17.1 17.118-17.1h63.154zm91.764-355.126c0-4.567 3.722-8.283 8.296-8.283h77.438c4.574 0 8.295 3.716 8.295 8.283v20.268c0 4.567-3.721 8.283-8.295 8.283h-77.438c-4.574 0-8.296-3.716-8.296-8.283zm75.735 48.551v28.24c-9.042-2.972-18.695-4.587-28.72-4.587-10.024 0-19.677 1.615-28.719 4.587v-28.24zm-210.898 28.24c-9.042-2.972-18.695-4.587-28.719-4.587s-19.677 1.615-28.719 4.587v-28.24h57.438zm18.295-56.523c0 4.567-3.721 8.283-8.295 8.283h-77.438c-4.574 0-8.296-3.716-8.296-8.283v-20.268c0-4.567 3.722-8.283 8.296-8.283h77.438c4.574 0 8.295 3.716 8.295 8.283zm71.765 355.863h-26.662v-53.757h26.662zm0-73.757h-26.662v-54.352h26.662zm0-74.351h-26.662v-53.757h26.662zm.546-73.757h-27.753c-3.117-28.703-19.488-53.486-42.854-68.097v-39.448c10.68-4.048 18.295-14.376 18.295-26.453v-.148h76.868v.148c0 12.078 7.615 22.406 18.296 26.453v39.448c-23.364 14.611-39.735 39.393-42.852 68.097zm163.69 200.86h-63.183c-9.438 0-17.117-7.671-17.117-17.099v-125.658c0-9.429 7.679-17.1 17.117-17.1h63.183zm0-190.86v11.004h-63.183c-20.467 0-37.117 16.643-37.117 37.1v125.658c0 20.456 16.65 37.099 37.117 37.099h63.183v61.177c0 7.396-6.024 13.414-13.43 13.414h-117.376c-7.405 0-13.43-6.018-13.43-13.414v-272.038c0-27.212 15.177-50.945 37.515-63.204.355-.161.698-.344 1.03-.544 10.035-5.298 21.456-8.314 33.573-8.314 12.12 0 23.543 3.016 33.579 8.317.328.198.667.379 1.019.538 22.34 12.259 37.52 35.993 37.52 63.207zm95.337 217.499c0 9.991-8.137 18.12-18.139 18.12s-18.139-8.129-18.139-18.12v-71.268h36.278z"/><path d="m31.529 345.597c5.523 0 10-4.492 10-10.015s-4.477-10-10-10-10 4.478-10 10v.028c0 5.523 4.477 9.987 10 9.987z"/></g></svg>