<?xml version="1.0" encoding="utf-8"?>
<!-- Generated by IcoMoon.io -->
<svg version="1.1" xmlns="http://www.w3.org/2000/svg" xmlns:xlink="http://www.w3.org/1999/xlink" width="752" height="156" viewBox="0 0 752 156">
<svg id="icon-anchor" width="32" height="32" viewBox="0 0 32 32" x="0" y="0">
<path d="M4.34 15.66c1.216 1.219 2.825 2.046 4.62 2.276l0.040 0.004v-7.94h-4v-2h4v-2.17c-1.175-0.424-2-1.53-2-2.828 0-1.657 1.343-3 3-3s3 1.343 3 3c0 1.298-0.825 2.404-1.979 2.822l-0.021 0.007v2.17h4v2h-4v7.94c1.835-0.234 3.444-1.061 4.66-2.28l0-0-1.42-1.42h5.66l-2.83 2.83c-1.81 1.809-4.309 2.928-7.070 2.928s-5.26-1.119-7.070-2.928l-2.83-2.83h5.66l-1.42 1.42zM10 4c0.552 0 1-0.448 1-1s-0.448-1-1-1v0c-0.552 0-1 0.448-1 1s0.448 1 1 1v0z"></path>
</svg>
<svg id="icon-single_bed" width="32" height="32" viewBox="0 0 32 32" x="0" y="36">
<path d="M6 12v3h12v-3h-12zM8.016 6.984v3h3v-3h-3zM15.984 9.984v-3h-3v3h3zM20.016 12v5.016h-1.359l-0.656 1.969h-0.984l-0.656-1.969h-8.672l-0.703 1.969h-0.984l-0.656-1.969h-1.359v-5.016q0-0.797 0.609-1.406t1.406-0.609v-3q0-0.797 0.609-1.383t1.406-0.586h7.969q0.797 0 1.406 0.586t0.609 1.383v3q0.797 0 1.406 0.609t0.609 1.406z"></path>
</svg>
<svg id="icon-settings" width="32" height="32" viewBox="0 0 32 32" x="0" y="76">
<path d="M30.391 12.68l-3.064-0.614c-0.154-0.443-0.336-0.873-0.537-1.289l1.736-2.604c0.529-0.793 0.424-1.85-0.25-2.523l-1.924-1.924c-0.387-0.387-0.898-0.586-1.416-0.586-0.383 0-0.77 0.11-1.107 0.336l-2.604 1.735c-0.418-0.202-0.848-0.382-1.291-0.536l-0.614-3.065c-0.186-0.936-1.008-1.608-1.961-1.608h-2.72c-0.953 0-1.774 0.673-1.961 1.608l-0.614 3.065c-0.443 0.154-0.873 0.335-1.289 0.536l-2.603-1.735c-0.339-0.226-0.725-0.336-1.109-0.336-0.517 0-1.028 0.199-1.415 0.586l-1.923 1.924c-0.674 0.674-0.779 1.73-0.25 2.523l1.735 2.604c-0.202 0.417-0.382 0.847-0.536 1.29l-3.066 0.613c-0.935 0.187-1.608 1.008-1.608 1.961v2.72c0 0.953 0.673 1.775 1.608 1.961l3.065 0.615c0.154 0.443 0.335 0.873 0.536 1.289l-1.734 2.604c-0.529 0.793-0.424 1.85 0.25 2.523l1.924 1.924c0.387 0.387 0.898 0.586 1.415 0.586 0.384 0 0.771-0.111 1.108-0.336l2.604-1.736c0.417 0.203 0.847 0.383 1.29 0.537l0.613 3.064c0.187 0.936 1.008 1.609 1.961 1.609h2.72c0.953 0 1.775-0.674 1.961-1.609l0.615-3.064c0.443-0.154 0.873-0.336 1.289-0.537l2.604 1.736c0.338 0.225 0.725 0.336 1.107 0.336 0.518 0 1.029-0.199 1.416-0.586l1.924-1.924c0.674-0.674 0.779-1.73 0.25-2.523l-1.736-2.604c0.203-0.418 0.383-0.848 0.537-1.291l3.064-0.613c0.935-0.185 1.609-1.008 1.609-1.961v-2.72c0-0.953-0.674-1.774-1.609-1.961zM26.934 17.975c-0.695 0.139-1.264 0.635-1.496 1.305-0.129 0.369-0.279 0.727-0.447 1.074-0.311 0.639-0.258 1.393 0.135 1.982l1.736 2.604-1.924 1.924-2.604-1.736c-0.334-0.223-0.721-0.336-1.109-0.336-0.297 0-0.596 0.066-0.871 0.199-0.348 0.168-0.705 0.32-1.076 0.449-0.668 0.232-1.164 0.801-1.303 1.496l-0.615 3.066h-2.72l-0.613-3.066c-0.139-0.695-0.635-1.264-1.304-1.496-0.369-0.129-0.728-0.279-1.075-0.447-0.276-0.135-0.574-0.201-0.872-0.201-0.389 0-0.775 0.113-1.109 0.336l-2.604 1.736-1.924-1.924 1.735-2.604c0.393-0.59 0.444-1.344 0.137-1.98-0.168-0.348-0.319-0.705-0.448-1.076-0.232-0.668-0.802-1.164-1.496-1.303l-3.065-0.615-0.002-2.721 3.066-0.613c0.694-0.139 1.264-0.635 1.496-1.304 0.129-0.369 0.278-0.728 0.447-1.075 0.31-0.638 0.258-1.392-0.136-1.981l-1.734-2.604 1.923-1.924 2.604 1.735c0.334 0.223 0.721 0.336 1.109 0.336 0.297 0 0.595-0.066 0.871-0.199 0.347-0.168 0.705-0.319 1.075-0.448 0.669-0.232 1.165-0.802 1.304-1.496l0.614-3.065 2.72-0.001 0.613 3.066c0.139 0.694 0.635 1.264 1.305 1.496 0.369 0.129 0.727 0.278 1.074 0.447 0.277 0.134 0.574 0.2 0.873 0.2 0.389 0 0.775-0.113 1.109-0.336l2.604-1.735 1.924 1.924-1.736 2.604c-0.393 0.59-0.443 1.343-0.137 1.98 0.168 0.347 0.32 0.705 0.449 1.075 0.232 0.669 0.801 1.165 1.496 1.304l3.064 0.614 0.003 2.72-3.066 0.614zM16 9.001c-3.865 0-7 3.135-7 7 0 3.866 3.135 7 7 7s7-3.135 7-7c0-3.865-3.135-7-7-7zM16 22.127c-3.382 0-6.125-2.744-6.125-6.125s2.743-6.125 6.125-6.125c3.381 0 6.125 2.743 6.125 6.125 0 3.381-2.744 6.125-6.125 6.125zM16 12.001c-2.21 0-4 1.79-4 4s1.79 4 4 4c2.209 0 4-1.791 4-4s-1.791-4-4-4zM16 19.002c-1.656 0-3-1.344-3-3s1.344-3 3-3 3 1.344 3 3c0 1.656-1.344 3-3 3z"></path>
</svg>
<svg id="icon-sailing-boat-water" width="32" height="32" viewBox="0 0 32 32" x="48" y="76">
<path d="M21.671 23h0.329c2.209 0 3.999-1.795 3.999-4h-10v-15h-1v15h-10c0 0.876 0.282 1.686 0.759 2.345 0.311-0.151 0.625-0.29 0.94-0.418-0.228-0.272-0.409-0.586-0.529-0.928v0h4.374c0.567-0.043 1.138-0.044 1.71 0h12.575c-0.412 1.164-1.523 2-2.829 2h-3.911c1.221 0.576 2.417 0.899 3.582 1v0 0zM26 18l-9-9v9h9zM23.5 17h-5.5v-5.5l5.5 5.5zM8 9.5v0c3-5 6-5.5 6-5.5s-1 3.5-1 8c0 4.5 1 6 1 6h-9c0 0 0-3.5 3-8.5zM8.397 10.809c-2.297 4.36-2.297 6.191-2.297 6.191h6.5c0 0-0.6-1.809-0.6-5s0.6-6.228 0.6-6.228c0 0-2.24 1.312-4.203 5.037v0zM3 24c0.432-0.319 0.901-0.634 1.405-0.934 4.032-2.406 8.441-2.965 12.82-0.502 4.021 2.262 7.786 1.761 11.12-0.452 0.623-0.414 1.177-0.857 1.655-1.299v1.322c-0.341 0.277-0.709 0.549-1.102 0.81-3.622 2.405-7.778 2.957-12.164 0.491-4.022-2.262-8.065-1.75-11.817 0.489-0.713 0.425-1.353 0.881-1.911 1.336-0.002 0.002-0.004 0.003-0.006 0.005v-1.266zM5.979 25.232c3.592-1.665 7.43-1.813 11.245 0.333 3.481 1.958 6.771 1.846 9.755 0.344v1.109c-3.143 1.433-6.616 1.46-10.245-0.581-3.645-2.050-7.307-1.822-10.755-0.094v-1.11z"></path>
</svg>
<svg id="icon-diving-goggles" width="32" height="32" viewBox="0 0 32 32" x="96" y="76">
<path d="M16 21h2v-3h-7v3h2c0 3.866 0 0 0 0 0 4.418 3.591 8 8 8 4.418 0 8-3.582 8-7.996v-17.004h-3v17.008c0 2.757-2.244 4.992-5 4.992-2.761 0-5-2.246-5-5 0 0 0 1.975 0 0v0zM27 9v-4h1v4h-1zM4 11.5v0.499c0 2.762 2.234 5.001 4.994 5.001h1.003c0.554 0 1.255-0.36 1.581-0.826l1.776-2.537c0.633-0.904 1.661-0.899 2.288 0l1.769 2.537c0.318 0.456 1.015 0.826 1.581 0.826h1.005c2.763 0 5.003-2.239 5.003-5.001v-0.499c0-3.038-2.471-5.5-5.49-5.5h-10.020c-3.032 0-5.49 2.469-5.49 5.5v0zM19.51 7c2.471 0 4.49 2.019 4.49 4.5v0.499c0 2.21-1.792 4.001-4.003 4.001h-1.005c-0.234 0-0.627-0.206-0.76-0.398l-1.769-2.537c-1.026-1.471-2.897-1.474-3.927-0.001l-1.776 2.537c-0.136 0.195-0.529 0.399-0.762 0.399h-1.003c-2.207 0-3.994-1.79-3.994-4.001v-0.499c0-2.482 2.013-4.5 4.49-4.5h10.020zM19.51 8c1.919 0 3.49 1.565 3.49 3.485v0.497c0 1.65-1.345 2.988-3.003 2.988h-1.005c0.093 0 0.007-0.045 0.060 0.030l-1.769-2.526c-1.423-2.032-4.138-2.036-5.567-0.003l-1.776 2.526c0.051-0.072-0.036-0.027 0.058-0.027h-1.003c-1.654 0-2.994-1.336-2.994-2.988v-0.497c0-1.922 1.566-3.485 3.49-3.485h10.020z"></path>
</svg>
<svg id="icon-lifebuoy" width="32" height="32" viewBox="0 0 32 32" x="0" y="124">
<path d="M16 0c-8.837 0-16 7.163-16 16s7.163 16 16 16 16-7.163 16-16-7.163-16-16-16zM10 16c0-3.314 2.686-6 6-6s6 2.686 6 6-2.686 6-6 6-6-2.686-6-6zM28.937 21.359v0l-5.544-2.297c0.391-0.943 0.608-1.977 0.608-3.062s-0.216-2.119-0.608-3.062l5.544-2.297c0.685 1.651 1.063 3.46 1.063 5.359s-0.379 3.708-1.063 5.359v0zM21.359 3.063v0 0l-2.297 5.544c-0.943-0.391-1.977-0.607-3.062-0.607s-2.119 0.216-3.062 0.607l-2.297-5.544c1.651-0.684 3.46-1.063 5.359-1.063s3.708 0.379 5.359 1.063zM3.063 10.641l5.544 2.297c-0.391 0.943-0.608 1.977-0.608 3.062s0.216 2.119 0.607 3.062l-5.544 2.297c-0.685-1.651-1.063-3.46-1.063-5.359s0.379-3.708 1.063-5.359zM10.641 28.937l2.297-5.544c0.943 0.391 1.977 0.608 3.062 0.608s2.119-0.216 3.062-0.608l2.297 5.544c-1.651 0.684-3.46 1.063-5.359 1.063s-3.708-0.379-5.359-1.063z"></path>
</svg>
<svg id="icon-compass2" width="32" height="32" viewBox="0 0 32 32" x="48" y="124">
<path d="M16 0c-8.837 0-16 7.163-16 16s7.163 16 16 16 16-7.163 16-16-7.163-16-16-16zM3 16c0-7.18 5.82-13 13-13 3.424 0 6.538 1.325 8.86 3.488l-12.86 5.512-5.512 12.86c-2.164-2.322-3.488-5.436-3.488-8.86zM18.286 18.286l-8.003 3.43 3.43-8.003 4.573 4.573zM16 29c-3.424 0-6.539-1.325-8.86-3.488l12.86-5.512 5.512-12.86c2.164 2.322 3.488 5.436 3.488 8.86 0 7.18-5.82 13-13 13z"></path>
</svg>
<svg id="icon-shield" width="32" height="32" viewBox="0 0 32 32" x="96" y="124">
<path d="M30 0l-14 4-14-4c0 0-0.141 1.616 0 4l14 4.378 14-4.378c0.141-2.384 0-4 0-4zM2.256 6.097c0.75 7.834 3.547 21.007 13.744 25.903 10.197-4.896 12.995-18.069 13.744-25.903l-13.744 5.167-13.744-5.167z"></path>
</svg>
</svg>
