<?xml version="1.0" encoding="utf-8"?><svg xmlns="http://www.w3.org/2000/svg" xmlns:xlink="http://www.w3.org/1999/xlink"><symbol viewBox="-12.5 -12.5 45 45" id="anchor" xmlns="http://www.w3.org/2000/svg"><path d="M4.34 15.66a7.948 7.948 0 004.62 2.276l.04.004V10H5V8h4V5.83a3.006 3.006 0 01-2-2.828 3 3 0 114.021 2.822L11 5.831v2.17h4v2h-4v7.94a7.97 7.97 0 004.66-2.28l-1.42-1.42h5.66l-2.83 2.83c-1.81 1.809-4.309 2.928-7.07 2.928s-5.26-1.119-7.07-2.928L.1 14.241h5.66l-1.42 1.42zM10 4a1 1 0 000-2 1 1 0 000 2z"/></symbol><symbol viewBox="-20 -20 72 72" id="compass2" xmlns="http://www.w3.org/2000/svg"><path d="M16 0C7.163 0 0 7.163 0 16s7.163 16 16 16 16-7.163 16-16S24.837 0 16 0zM3 16C3 8.82 8.82 3 16 3c3.424 0 6.538 1.325 8.86 3.488L12 12 6.488 24.86A12.952 12.952 0 013 16zm15.286 2.286l-8.003 3.43 3.43-8.003 4.573 4.573zM16 29a12.955 12.955 0 01-8.86-3.488L20 20l5.512-12.86A12.952 12.952 0 0129 16c0 7.18-5.82 13-13 13z"/></symbol><symbol viewBox="-20 -20 72 72" id="diving-goggles" xmlns="http://www.w3.org/2000/svg"><path d="M16 21h2v-3h-7v3h2c0 3.866 0 0 0 0a8 8 0 0016 .004V4h-3v17.008A5 5 0 0116 21s0 1.975 0 0zM27 9V5h1v4h-1zM4 11.5v.499A4.996 4.996 0 008.994 17h1.003c.554 0 1.255-.36 1.581-.826l1.776-2.537c.633-.904 1.661-.899 2.288 0l1.769 2.537c.318.456 1.015.826 1.581.826h1.005A5.002 5.002 0 0025 11.999V11.5C25 8.462 22.529 6 19.51 6H9.49C6.458 6 4 8.469 4 11.5zM19.51 7C21.981 7 24 9.019 24 11.5v.499A4.002 4.002 0 0119.997 16h-1.005c-.234 0-.627-.206-.76-.398l-1.769-2.537c-1.026-1.471-2.897-1.474-3.927-.001l-1.776 2.537c-.136.195-.529.399-.762.399H8.995a3.996 3.996 0 01-3.994-4.001V11.5c0-2.482 2.013-4.5 4.49-4.5h10.02zm0 1A3.496 3.496 0 0123 11.485v.497a2.996 2.996 0 01-3.003 2.988h-1.005c.093 0 .007-.045.06.03l-1.769-2.526c-1.423-2.032-4.138-2.036-5.567-.003L9.94 14.997c.051-.072-.036-.027.058-.027H8.995a2.99 2.99 0 01-2.994-2.988v-.497A3.491 3.491 0 019.491 8h10.02z"/></symbol><symbol viewBox="-20 -20 72 72" id="lifebuoy" xmlns="http://www.w3.org/2000/svg"><path d="M16 0C7.163 0 0 7.163 0 16s7.163 16 16 16 16-7.163 16-16S24.837 0 16 0zm-6 16a6 6 0 1112 0 6 6 0 01-12 0zm18.937 5.359l-5.544-2.297c.391-.943.608-1.977.608-3.062s-.216-2.119-.608-3.062l5.544-2.297C29.622 12.292 30 14.101 30 16s-.379 3.708-1.063 5.359zM21.359 3.063l-2.297 5.544C18.119 8.216 17.085 8 16 8s-2.119.216-3.062.607l-2.297-5.544C12.292 2.379 14.101 2 16 2s3.708.379 5.359 1.063zM3.063 10.641l5.544 2.297c-.391.943-.608 1.977-.608 3.062s.216 2.119.607 3.062l-5.544 2.297c-.685-1.651-1.063-3.46-1.063-5.359s.379-3.708 1.063-5.359zm7.578 18.296l2.297-5.544c.943.391 1.977.608 3.062.608s2.119-.216 3.062-.608l2.297 5.544C19.708 29.621 17.899 30 16 30s-3.708-.379-5.359-1.063z"/></symbol><symbol viewBox="-20 -20 72 72" id="sailing-boat-water" xmlns="http://www.w3.org/2000/svg"><path d="M21.671 23H22a4.002 4.002 0 003.999-4h-10V4h-1v15h-10c0 .876.282 1.686.759 2.345.311-.151.625-.29.94-.418a2.984 2.984 0 01-.529-.928h4.374a11.22 11.22 0 011.71 0h12.575a3.003 3.003 0 01-2.829 2h-3.911c1.221.576 2.417.899 3.582 1zM26 18l-9-9v9h9zm-2.5-1H18v-5.5l5.5 5.5zM8 9.5c3-5 6-5.5 6-5.5s-1 3.5-1 8 1 6 1 6H5s0-3.5 3-8.5zm.397 1.309C6.1 15.169 6.1 17 6.1 17h6.5s-.6-1.809-.6-5 .6-6.228.6-6.228-2.24 1.312-4.203 5.037zM3 24c.432-.319.901-.634 1.405-.934 4.032-2.406 8.441-2.965 12.82-.502 4.021 2.262 7.786 1.761 11.12-.452A13.232 13.232 0 0030 20.813v1.322c-.341.277-.709.549-1.102.81-3.622 2.405-7.778 2.957-12.164.491-4.022-2.262-8.065-1.75-11.817.489-.713.425-1.353.881-1.911 1.336L3 25.266V24zm2.979 1.232c3.592-1.665 7.43-1.813 11.245.333 3.481 1.958 6.771 1.846 9.755.344v1.109c-3.143 1.433-6.616 1.46-10.245-.581-3.645-2.05-7.307-1.822-10.755-.094v-1.11z"/></symbol><symbol viewBox="-20 -20 72 72" id="settings" xmlns="http://www.w3.org/2000/svg"><path d="M30.391 12.68l-3.064-.614a12.098 12.098 0 00-.537-1.289l1.736-2.604a1.999 1.999 0 00-.25-2.523l-1.924-1.924a1.996 1.996 0 00-2.523-.25l-2.604 1.735a12.09 12.09 0 00-1.291-.536L19.32 1.61A1.998 1.998 0 0017.359.002h-2.72a2 2 0 00-1.961 1.608l-.614 3.065c-.443.154-.873.335-1.289.536L8.172 3.476a1.996 1.996 0 00-2.524.25L3.725 5.65a2 2 0 00-.25 2.523l1.735 2.604c-.202.417-.382.847-.536 1.29l-3.066.613A2 2 0 000 14.641v2.72a2 2 0 001.608 1.961l3.065.615c.154.443.335.873.536 1.289L3.475 23.83a1.999 1.999 0 00.25 2.523l1.924 1.924a1.996 1.996 0 002.523.25l2.604-1.736c.417.203.847.383 1.29.537l.613 3.064a2 2 0 001.961 1.609h2.72a2 2 0 001.961-1.609l.615-3.064c.443-.154.873-.336 1.289-.537l2.604 1.736a1.998 1.998 0 002.523-.25l1.924-1.924a2 2 0 00.25-2.523l-1.736-2.604c.203-.418.383-.848.537-1.291l3.064-.613A2 2 0 0032 17.361v-2.72c0-.953-.674-1.774-1.609-1.961zm-3.457 5.295a1.997 1.997 0 00-1.496 1.305c-.129.369-.279.727-.447 1.074a1.996 1.996 0 00.135 1.982l1.736 2.604-1.924 1.924-2.604-1.736a1.997 1.997 0 00-1.98-.137c-.348.168-.705.32-1.076.449a1.998 1.998 0 00-1.303 1.496l-.615 3.066h-2.72l-.613-3.066a1.997 1.997 0 00-1.304-1.496 10.17 10.17 0 01-1.075-.447 1.994 1.994 0 00-1.981.135l-2.604 1.736-1.924-1.924 1.735-2.604c.393-.59.444-1.344.137-1.98a10.106 10.106 0 01-.448-1.076 2 2 0 00-1.496-1.303l-3.065-.615L2 14.641l3.066-.613a1.999 1.999 0 001.496-1.304c.129-.369.278-.728.447-1.075a1.995 1.995 0 00-.136-1.981L5.139 7.064 7.062 5.14l2.604 1.735a1.997 1.997 0 001.98.137 10.09 10.09 0 011.075-.448 1.999 1.999 0 001.304-1.496l.614-3.065 2.72-.001.613 3.066a1.998 1.998 0 001.305 1.496c.369.129.727.278 1.074.447a1.998 1.998 0 001.982-.136l2.604-1.735 1.924 1.924-1.736 2.604a2.006 2.006 0 00-.137 1.98c.168.347.32.705.449 1.075a1.997 1.997 0 001.496 1.304l3.064.614.003 2.72-3.066.614zM16 9.001A7 7 0 1016.001 23 7 7 0 0016 9zm0 13.126c-3.382 0-6.125-2.744-6.125-6.125S12.618 9.877 16 9.877a6.127 6.127 0 016.125 6.125A6.127 6.127 0 0116 22.127zm0-10.126c-2.21 0-4 1.79-4 4s1.79 4 4 4a4 4 0 000-8zm0 7.001a3.001 3.001 0 010-6 3.001 3.001 0 010 6z"/></symbol><symbol viewBox="-20 -20 72 72" id="shield" xmlns="http://www.w3.org/2000/svg"><path d="M30 0L16 4 2 0s-.141 1.616 0 4l14 4.378L30 4c.141-2.384 0-4 0-4zM2.256 6.097C3.006 13.931 5.803 27.104 16 32c10.197-4.896 12.995-18.069 13.744-25.903L16 11.264 2.256 6.097z"/></symbol><symbol viewBox="-15 -15 54 54" id="single_bed" xmlns="http://www.w3.org/2000/svg"><path d="M6 12v3h12v-3H6zm2.016-5.016v3h3v-3h-3zm7.968 3v-3h-3v3h3zM20.016 12v5.016h-1.359l-.656 1.969h-.984l-.656-1.969H7.689l-.703 1.969h-.984l-.656-1.969H3.987V12q0-.797.609-1.406t1.406-.609v-3q0-.797.609-1.383t1.406-.586h7.969q.797 0 1.406.586t.609 1.383v3q.797 0 1.406.609T20.016 12z"/></symbol><symbol viewBox="-20 -20 72 72" id="world" xmlns="http://www.w3.org/2000/svg"><path d="M15.5 0C6.939 0 0 6.939 0 15.5S6.939 31 15.5 31 31 24.061 31 15.5 24.061 0 15.5 0zm13.475 15h-5.996c-.055-2.215-.449-4.331-1.148-6.268a16.334 16.334 0 003.736-2.197A13.433 13.433 0 0128.975 15zM14.947 28.972c-1.662-1.384-3.056-3.181-4.076-5.268A15.497 15.497 0 0115 23.025v5.949l-.053-.002zm1.104-26.944c1.886 1.57 3.425 3.673 4.466 6.126-1.426.487-2.941.77-4.518.82V2.025l.052.003zm1.666.17a13.463 13.463 0 017.164 3.614 15.297 15.297 0 01-3.428 1.998c-.91-2.157-2.187-4.064-3.736-5.612zM15 2.025v6.949a15.492 15.492 0 01-4.518-.82c1.041-2.453 2.58-4.556 4.466-6.126L15 2.025zM9.546 7.811a15.335 15.335 0 01-3.427-1.998 13.46 13.46 0 017.164-3.614c-1.55 1.547-2.826 3.454-3.737 5.612zm.559 1.265c1.542.535 3.185.847 4.895.899V15H9.021c.054-2.094.425-4.095 1.084-5.924zM15 16v6.025a16.411 16.411 0 00-4.539.769A18.785 18.785 0 019.021 16H15zm-1.717 12.802a13.431 13.431 0 01-6.545-3.052 15.199 15.199 0 013.188-1.7 17.317 17.317 0 003.357 4.752zm2.717.173v-5.949c1.432.046 2.82.27 4.129.679-1.021 2.087-2.414 3.884-4.076 5.268l-.053.002zm5.074-4.925a15.32 15.32 0 013.188 1.7 13.44 13.44 0 01-6.545 3.052 17.338 17.338 0 003.357-4.752zm-.535-1.256A16.424 16.424 0 0016 22.025V16h5.979a18.806 18.806 0 01-1.44 6.794zM16 15V9.975a16.44 16.44 0 004.895-.898c.658 1.829 1.029 3.83 1.084 5.924H16zM5.434 6.535a16.35 16.35 0 003.735 2.197C8.47 10.669 8.076 12.785 8.021 15H2.025a13.429 13.429 0 013.409-8.465zM2.025 16h5.996a19.724 19.724 0 001.503 7.137 16.23 16.23 0 00-3.538 1.931A13.463 13.463 0 012.025 16zm22.989 9.067a16.256 16.256 0 00-3.539-1.931 19.725 19.725 0 001.504-7.137h5.996a13.464 13.464 0 01-3.961 9.068z"/></symbol></svg>