<?xml version="1.0" encoding="utf-8"?><svg xmlns="http://www.w3.org/2000/svg" xmlns:xlink="http://www.w3.org/1999/xlink"><symbol viewBox="-10.62 -10.62 38.25 38.25" id="align-right" xmlns="http://www.w3.org/2000/svg"><path d="M17 2v1H0V2h17zM3 7h14V6H3v1zm-3 4h17v-1H0v1zm7 4h10v-1H7v1z"/></symbol><symbol viewBox="-12.5 -12.5 45 45" id="anchor" xmlns="http://www.w3.org/2000/svg"><path d="M4.34 15.66a7.948 7.948 0 004.62 2.276l.04.004V10H5V8h4V5.83a3.006 3.006 0 01-2-2.828 3 3 0 114.021 2.822L11 5.831v2.17h4v2h-4v7.94a7.97 7.97 0 004.66-2.28l-1.42-1.42h5.66l-2.83 2.83c-1.81 1.809-4.309 2.928-7.07 2.928s-5.26-1.119-7.07-2.928L.1 14.241h5.66l-1.42 1.42zM10 4a1 1 0 000-2 1 1 0 000 2z"/></symbol><symbol viewBox="-319.78 -319.78 1151.19 1151.19" id="anchor-1" xmlns="http://www.w3.org/2000/svg"><path d="M154.571 384.761l-79.944-71.949a4.037 4.037 0 00-4.442-.625 3.99 3.99 0 00-2.217 3.903l7.994 103.926a3.986 3.986 0 003.974 3.686c.11 0 .211 0 .313-.015a3.993 3.993 0 003.677-4.295l-7.222-93.965 72.512 65.267a3.995 3.995 0 005.652-.296 3.991 3.991 0 00-.297-5.637z"/><path d="M259.434 505.94c-3.216-6.846-14.685-8.947-32.04-12.116-36.459-6.675-97.47-17.847-119.681-83.395a3.994 3.994 0 00-5.067-2.506 3.994 3.994 0 00-2.506 5.066c23.726 70.014 87.634 81.709 125.81 88.688 11.617 2.132 24.78 4.544 26.255 7.667a3.983 3.983 0 003.615 2.295c.569 0 1.155-.125 1.702-.375a3.998 3.998 0 001.912-5.324z"/><path d="M243.804 459.278c-.219-2.194-2.209-3.772-4.372-3.584-.773.071-77.391 6.903-107.331-61.573a3.997 3.997 0 00-7.323 3.2c26.762 61.23 88.071 66.57 108.611 66.57 4.201 0 6.699-.218 6.839-.234a3.996 3.996 0 003.576-4.379zm-1.146-242.258l-15.988-15.989a3.996 3.996 0 00-2.826-1.171h-77.852a3.995 3.995 0 00-3.997 3.997 3.995 3.995 0 003.997 3.998h76.196l13.646 13.646v160.527a3.995 3.995 0 003.997 3.997 3.996 3.996 0 003.998-3.996V219.846a3.992 3.992 0 00-1.171-2.826z"/><path d="M239.83 418.603a3.995 3.995 0 00-3.997 3.997v37.077a3.994 3.994 0 003.997 3.996 3.996 3.996 0 003.998-3.997V422.6a3.995 3.995 0 00-3.998-3.997zm-87.282-34.819l-47.966-7.994c-1.593-.25-3.24.477-4.083 1.882l-23.983 39.972a3.994 3.994 0 001.374 5.488 3.99 3.99 0 005.48-1.366l22.586-37.646 45.28 7.549c2.132.391 4.232-1.099 4.599-3.286a3.995 3.995 0 00-3.287-4.599zm288.906-71.598a4.04 4.04 0 00-4.442.625l-79.943 71.949a3.989 3.989 0 00-.297 5.637 4.015 4.015 0 005.652.296l72.511-65.267-7.222 93.965a3.995 3.995 0 003.678 4.295c.101.016.203.016.312.016a3.993 3.993 0 003.974-3.686l7.994-103.927a3.99 3.99 0 00-2.217-3.903z"/><path d="M408.993 407.923c-2.076-.718-4.364.413-5.066 2.506-22.43 66.204-83.98 77.352-120.751 84.019-17.3 3.138-27.746 5.036-30.932 11.406-.983 1.975-.187 4.38 1.788 5.363a4.084 4.084 0 001.788.422c1.46 0 2.873-.812 3.575-2.21 1.397-2.795 14.045-5.083 25.209-7.112 38.504-6.979 102.952-18.659 126.895-89.328a3.994 3.994 0 00-2.506-5.066z"/><path d="M384.799 392.059a4.005 4.005 0 00-5.263 2.062c-29.885 68.366-104.161 61.885-107.338 61.573-2.147-.179-4.145 1.39-4.364 3.592a3.999 3.999 0 003.576 4.371c.14.015 2.631.234 6.838.234 20.549 0 81.857-5.347 108.612-66.57a3.998 3.998 0 00-2.061-5.262zm-10.923-192.2h-86.08a3.995 3.995 0 00-2.826 1.171l-15.989 15.989a3.995 3.995 0 00-1.171 2.826v165.087a3.994 3.994 0 003.997 3.996 3.994 3.994 0 003.997-3.996V221.5l13.646-13.646h84.426a3.994 3.994 0 003.996-3.998 3.993 3.993 0 00-3.996-3.997z"/><path d="M271.808 421.61a3.995 3.995 0 00-3.997 3.997v34.07a3.994 3.994 0 003.997 3.996 3.994 3.994 0 003.997-3.996v-34.07a3.995 3.995 0 00-3.997-3.997zm102.053-253.728h-84.41l-14.817-14.817c-1.561-1.562-4.09-1.561-5.652 0s-1.562 4.09 0 5.652l15.989 15.988a3.991 3.991 0 002.826 1.172h86.064a3.994 3.994 0 003.996-3.998 3.993 3.993 0 00-3.996-3.997zm-131.206-14.817a3.994 3.994 0 00-5.652 0l-14.817 14.817h-76.54a3.995 3.995 0 00-3.997 3.997 3.995 3.995 0 003.997 3.998h78.195a3.991 3.991 0 002.826-1.172l15.988-15.988a3.995 3.995 0 000-5.652zm192.466 264.579l-23.983-39.972a4.01 4.01 0 00-4.082-1.882l-47.967 7.994a3.997 3.997 0 00-3.287 4.599c.368 2.186 2.476 3.677 4.599 3.286l45.28-7.549 22.586 37.645a3.995 3.995 0 005.48 1.367 3.992 3.992 0 001.374-5.488z"/><path d="M151.72 192.091c-2.045-.711-4.356.363-5.098 2.439-2.81 7.97-10.383 13.323-18.838 13.323-11.023 0-19.985-8.967-19.985-19.986s8.962-19.986 19.985-19.986c8.447 0 16.013 5.349 18.846 13.308.734 2.076 3.029 3.146 5.098 2.428a3.99 3.99 0 002.428-5.105c-3.95-11.141-14.552-18.624-26.372-18.624-15.427 0-27.98 12.554-27.98 27.98s12.553 27.98 27.98 27.98c11.844 0 22.437-7.499 26.379-18.655a4 4 0 00-2.443-5.102zm240.003-32.204c-11.851.008-22.452 7.507-26.379 18.659a3.995 3.995 0 002.443 5.098c2.084.722 4.365-.363 5.098-2.443 2.803-7.959 10.376-13.311 18.838-13.319 11.023 0 19.986 8.967 19.986 19.986s-8.963 19.986-19.986 19.986h-.016c-8.438 0-16.004-5.345-18.822-13.304a3.996 3.996 0 00-5.105-2.432 3.998 3.998 0 00-2.436 5.102c3.95 11.145 14.543 18.628 26.355 18.628l.024-.001c15.427 0 27.98-12.554 27.98-27.98.001-15.426-12.551-27.98-27.98-27.98zm-97.44-78.999a3.989 3.989 0 00-5.645.324c-6.651 7.46-15.7 12.471-25.489 14.111a3.999 3.999 0 001.326 7.886c11.57-1.941 22.274-7.862 30.128-16.68a3.994 3.994 0 00-.32-5.641zm12.758-37.673C302.795 18.175 281.246 0 255.819 0c-28.652 0-51.964 23.312-51.964 51.963 0 25.486 18.214 47.041 43.306 51.245a3.997 3.997 0 004.606-3.282 3.993 3.993 0 00-3.279-4.602c-21.227-3.556-36.638-21.793-36.638-43.36 0-24.244 19.728-43.969 43.969-43.969 21.516 0 39.745 15.376 43.338 36.555.374 2.182 2.498 3.63 4.613 3.275a4.006 4.006 0 003.271-4.61z"/><path d="M272.947 29.843c-4.949-3.833-10.867-5.859-17.128-5.859-15.426 0-27.98 12.554-27.98 27.98s12.553 27.98 27.98 27.98c4.638 0 9.235-1.159 13.288-3.358a3.997 3.997 0 001.608-5.418c-1.046-1.947-3.482-2.646-5.418-1.608a19.71 19.71 0 01-9.478 2.39c-11.023 0-19.986-8.968-19.986-19.987s8.963-19.985 19.986-19.985c4.474 0 8.697 1.444 12.226 4.181a3.993 3.993 0 005.613-.711 3.997 3.997 0 00-.711-5.605z"/><path d="M255.819 55.96a4.002 4.002 0 01-3.998-3.997 4.003 4.003 0 013.998-3.997 3.995 3.995 0 003.997-3.997 3.994 3.994 0 00-3.997-3.997c-6.613 0-11.992 5.38-11.992 11.992s5.379 11.991 11.992 11.991a3.995 3.995 0 003.997-3.998 3.994 3.994 0 00-3.997-3.997zM239.83 93.208a3.995 3.995 0 00-3.997 3.997v58.685a3.995 3.995 0 003.997 3.997 3.996 3.996 0 003.998-3.996V97.205a3.995 3.995 0 00-3.998-3.997zm31.978 0a3.995 3.995 0 00-3.997 3.997v58.685a3.995 3.995 0 003.997 3.997 3.994 3.994 0 003.997-3.996V97.205a3.995 3.995 0 00-3.997-3.997zm-1.171 79.843a3.994 3.994 0 00-5.652 0l-23.983 23.982a3.994 3.994 0 000 5.652c.781.781 1.803 1.171 2.826 1.171s2.046-.39 2.826-1.171l23.983-23.982a3.996 3.996 0 000-5.652z"/><path d="M270.637 197.033l-23.983-23.982a3.994 3.994 0 00-5.652 0 3.994 3.994 0 000 5.652l23.983 23.982a3.984 3.984 0 002.826 1.171c1.023 0 2.045-.39 2.826-1.171a3.994 3.994 0 000-5.652zM255.82 39.973a3.995 3.995 0 00-3.998 3.997 3.995 3.995 0 003.998 3.997c46.287 0 83.94 37.657 83.94 83.94a3.994 3.994 0 003.997 3.997 3.996 3.996 0 003.998-3.996c0-50.695-41.245-91.935-91.935-91.935z"/><path d="M255.819 55.961a3.995 3.995 0 00-3.998 3.997 3.995 3.995 0 003.998 3.997c37.466 0 67.952 30.482 67.952 67.952a3.994 3.994 0 003.997 3.997 3.994 3.994 0 003.997-3.997c0-41.876-34.069-75.946-75.946-75.946zm87.938 71.948a3.995 3.995 0 00-3.997 3.997 83.933 83.933 0 01-3.162 22.895 4 4 0 007.698 2.177 92.198 92.198 0 003.458-25.072 3.995 3.995 0 00-3.997-3.997z"/><path d="M327.767 127.91a3.994 3.994 0 00-3.997 3.997c0 7.784-1.297 15.407-3.865 22.66a4 4 0 007.542 2.662c2.865-8.107 4.317-16.629 4.317-25.322a3.994 3.994 0 00-3.997-3.997zm-124.013 89.8a3.992 3.992 0 00-5.512-1.245c-31.525 19.9-50.347 54.032-50.347 91.318 0 2.21 1.788 3.997 3.997 3.997s3.997-1.787 3.998-3.996c0-34.523 17.425-66.133 46.615-84.558a4 4 0 001.249-5.516z"/><path d="M228.379 224.104c-.781-2.061-3.099-3.107-5.153-2.323-35.498 13.44-59.341 47.998-59.341 86.002 0 2.21 1.788 3.997 3.997 3.997s3.997-1.787 3.997-3.998c0-34.694 21.775-66.253 54.173-78.522a4 4 0 002.327-5.156zm27.44 183.609c-55.102 0-99.93-44.827-99.93-99.93 0-2.209-1.788-3.997-3.997-3.997s-3.997 1.788-3.997 3.997c0 59.505 48.411 107.924 107.924 107.924a3.995 3.995 0 003.997-3.997 3.995 3.995 0 00-3.997-3.997z"/><path d="M255.819 391.722c-46.288 0-83.941-37.66-83.941-83.94a3.994 3.994 0 00-3.997-3.997 3.995 3.995 0 00-3.997 3.997c0 50.699 41.245 91.936 91.936 91.936a3.994 3.994 0 003.996-3.998 3.996 3.996 0 00-3.997-3.998z"/><path d="M336.263 432.336c-18.784-25.426-48.856-40.604-80.459-40.604a3.995 3.995 0 00-3.997 3.998 3.994 3.994 0 003.997 3.997c29.073 0 56.749 13.966 74.025 37.356a3.994 3.994 0 003.217 1.624c.827 0 1.663-.25 2.373-.781a3.992 3.992 0 00.844-5.59z"/><path d="M321.165 438.925c-16.021-19.829-39.84-31.212-65.345-31.212a3.995 3.995 0 00-3.998 3.997 3.995 3.995 0 003.998 3.997c23.077 0 44.632 10.29 59.13 28.246a3.988 3.988 0 003.107 1.483 3.996 3.996 0 003.108-6.511z"/></symbol><symbol viewBox="-319.78 -319.78 1151.19 1151.19" id="anchor-2" xmlns="http://www.w3.org/2000/svg"><path d="M154.571 384.761l-79.944-71.949a4.037 4.037 0 00-4.442-.625 3.99 3.99 0 00-2.217 3.903l7.994 103.926a3.986 3.986 0 003.974 3.686c.11 0 .211 0 .313-.015a3.993 3.993 0 003.677-4.295l-7.222-93.965 72.512 65.267a3.995 3.995 0 005.652-.296 3.991 3.991 0 00-.297-5.637z"/><path d="M259.434 505.94c-3.216-6.846-14.685-8.947-32.04-12.116-36.459-6.675-97.47-17.847-119.681-83.395a3.994 3.994 0 00-5.067-2.506 3.994 3.994 0 00-2.506 5.066c23.726 70.014 87.634 81.709 125.81 88.688 11.617 2.132 24.78 4.544 26.255 7.667a3.983 3.983 0 003.615 2.295c.569 0 1.155-.125 1.702-.375a3.998 3.998 0 001.912-5.324z"/><path d="M243.804 459.278c-.219-2.194-2.209-3.772-4.372-3.584-.773.071-77.391 6.903-107.331-61.573a3.997 3.997 0 00-7.323 3.2c26.762 61.23 88.071 66.57 108.611 66.57 4.201 0 6.699-.218 6.839-.234a3.996 3.996 0 003.576-4.379zm-1.146-242.258l-15.988-15.989a3.996 3.996 0 00-2.826-1.171h-77.852a3.995 3.995 0 00-3.997 3.997 3.995 3.995 0 003.997 3.998h76.196l13.646 13.646v160.527a3.995 3.995 0 003.997 3.997 3.996 3.996 0 003.998-3.996V219.846a3.992 3.992 0 00-1.171-2.826z"/><path d="M239.83 418.603a3.995 3.995 0 00-3.997 3.997v37.077a3.994 3.994 0 003.997 3.996 3.996 3.996 0 003.998-3.997V422.6a3.995 3.995 0 00-3.998-3.997zm-87.282-34.819l-47.966-7.994c-1.593-.25-3.24.477-4.083 1.882l-23.983 39.972a3.994 3.994 0 001.374 5.488 3.99 3.99 0 005.48-1.366l22.586-37.646 45.28 7.549c2.132.391 4.232-1.099 4.599-3.286a3.995 3.995 0 00-3.287-4.599zm288.906-71.598a4.04 4.04 0 00-4.442.625l-79.943 71.949a3.989 3.989 0 00-.297 5.637 4.015 4.015 0 005.652.296l72.511-65.267-7.222 93.965a3.995 3.995 0 003.678 4.295c.101.016.203.016.312.016a3.993 3.993 0 003.974-3.686l7.994-103.927a3.99 3.99 0 00-2.217-3.903z"/><path d="M408.993 407.923c-2.076-.718-4.364.413-5.066 2.506-22.43 66.204-83.98 77.352-120.751 84.019-17.3 3.138-27.746 5.036-30.932 11.406-.983 1.975-.187 4.38 1.788 5.363a4.084 4.084 0 001.788.422c1.46 0 2.873-.812 3.575-2.21 1.397-2.795 14.045-5.083 25.209-7.112 38.504-6.979 102.952-18.659 126.895-89.328a3.994 3.994 0 00-2.506-5.066z"/><path d="M384.799 392.059a4.005 4.005 0 00-5.263 2.062c-29.885 68.366-104.161 61.885-107.338 61.573-2.147-.179-4.145 1.39-4.364 3.592a3.999 3.999 0 003.576 4.371c.14.015 2.631.234 6.838.234 20.549 0 81.857-5.347 108.612-66.57a3.998 3.998 0 00-2.061-5.262zm-10.923-192.2h-86.08a3.995 3.995 0 00-2.826 1.171l-15.989 15.989a3.995 3.995 0 00-1.171 2.826v165.087a3.994 3.994 0 003.997 3.996 3.994 3.994 0 003.997-3.996V221.5l13.646-13.646h84.426a3.994 3.994 0 003.996-3.998 3.993 3.993 0 00-3.996-3.997z"/><path d="M271.808 421.61a3.995 3.995 0 00-3.997 3.997v34.07a3.994 3.994 0 003.997 3.996 3.994 3.994 0 003.997-3.996v-34.07a3.995 3.995 0 00-3.997-3.997zm102.053-253.728h-84.41l-14.817-14.817c-1.561-1.562-4.09-1.561-5.652 0s-1.562 4.09 0 5.652l15.989 15.988a3.991 3.991 0 002.826 1.172h86.064a3.994 3.994 0 003.996-3.998 3.993 3.993 0 00-3.996-3.997zm-131.206-14.817a3.994 3.994 0 00-5.652 0l-14.817 14.817h-76.54a3.995 3.995 0 00-3.997 3.997 3.995 3.995 0 003.997 3.998h78.195a3.991 3.991 0 002.826-1.172l15.988-15.988a3.995 3.995 0 000-5.652zm192.466 264.579l-23.983-39.972a4.01 4.01 0 00-4.082-1.882l-47.967 7.994a3.997 3.997 0 00-3.287 4.599c.368 2.186 2.476 3.677 4.599 3.286l45.28-7.549 22.586 37.645a3.995 3.995 0 005.48 1.367 3.992 3.992 0 001.374-5.488z"/><path d="M151.72 192.091c-2.045-.711-4.356.363-5.098 2.439-2.81 7.97-10.383 13.323-18.838 13.323-11.023 0-19.985-8.967-19.985-19.986s8.962-19.986 19.985-19.986c8.447 0 16.013 5.349 18.846 13.308.734 2.076 3.029 3.146 5.098 2.428a3.99 3.99 0 002.428-5.105c-3.95-11.141-14.552-18.624-26.372-18.624-15.427 0-27.98 12.554-27.98 27.98s12.553 27.98 27.98 27.98c11.844 0 22.437-7.499 26.379-18.655a4 4 0 00-2.443-5.102zm240.003-32.204c-11.851.008-22.452 7.507-26.379 18.659a3.995 3.995 0 002.443 5.098c2.084.722 4.365-.363 5.098-2.443 2.803-7.959 10.376-13.311 18.838-13.319 11.023 0 19.986 8.967 19.986 19.986s-8.963 19.986-19.986 19.986h-.016c-8.438 0-16.004-5.345-18.822-13.304a3.996 3.996 0 00-5.105-2.432 3.998 3.998 0 00-2.436 5.102c3.95 11.145 14.543 18.628 26.355 18.628l.024-.001c15.427 0 27.98-12.554 27.98-27.98.001-15.426-12.551-27.98-27.98-27.98zm-97.44-78.999a3.989 3.989 0 00-5.645.324c-6.651 7.46-15.7 12.471-25.489 14.111a3.999 3.999 0 001.326 7.886c11.57-1.941 22.274-7.862 30.128-16.68a3.994 3.994 0 00-.32-5.641zm12.758-37.673C302.795 18.175 281.246 0 255.819 0c-28.652 0-51.964 23.312-51.964 51.963 0 25.486 18.214 47.041 43.306 51.245a3.997 3.997 0 004.606-3.282 3.993 3.993 0 00-3.279-4.602c-21.227-3.556-36.638-21.793-36.638-43.36 0-24.244 19.728-43.969 43.969-43.969 21.516 0 39.745 15.376 43.338 36.555.374 2.182 2.498 3.63 4.613 3.275a4.006 4.006 0 003.271-4.61z"/><path d="M272.947 29.843c-4.949-3.833-10.867-5.859-17.128-5.859-15.426 0-27.98 12.554-27.98 27.98s12.553 27.98 27.98 27.98c4.638 0 9.235-1.159 13.288-3.358a3.997 3.997 0 001.608-5.418c-1.046-1.947-3.482-2.646-5.418-1.608a19.71 19.71 0 01-9.478 2.39c-11.023 0-19.986-8.968-19.986-19.987s8.963-19.985 19.986-19.985c4.474 0 8.697 1.444 12.226 4.181a3.993 3.993 0 005.613-.711 3.997 3.997 0 00-.711-5.605z"/><path d="M255.819 55.96a4.002 4.002 0 01-3.998-3.997 4.003 4.003 0 013.998-3.997 3.995 3.995 0 003.997-3.997 3.994 3.994 0 00-3.997-3.997c-6.613 0-11.992 5.38-11.992 11.992s5.379 11.991 11.992 11.991a3.995 3.995 0 003.997-3.998 3.994 3.994 0 00-3.997-3.997zM239.83 93.208a3.995 3.995 0 00-3.997 3.997v58.685a3.995 3.995 0 003.997 3.997 3.996 3.996 0 003.998-3.996V97.205a3.995 3.995 0 00-3.998-3.997zm31.978 0a3.995 3.995 0 00-3.997 3.997v58.685a3.995 3.995 0 003.997 3.997 3.994 3.994 0 003.997-3.996V97.205a3.995 3.995 0 00-3.997-3.997zm-1.171 79.843a3.994 3.994 0 00-5.652 0l-23.983 23.982a3.994 3.994 0 000 5.652c.781.781 1.803 1.171 2.826 1.171s2.046-.39 2.826-1.171l23.983-23.982a3.996 3.996 0 000-5.652z"/><path d="M270.637 197.033l-23.983-23.982a3.994 3.994 0 00-5.652 0 3.994 3.994 0 000 5.652l23.983 23.982a3.984 3.984 0 002.826 1.171c1.023 0 2.045-.39 2.826-1.171a3.994 3.994 0 000-5.652zM255.82 39.973a3.995 3.995 0 00-3.998 3.997 3.995 3.995 0 003.998 3.997c46.287 0 83.94 37.657 83.94 83.94a3.994 3.994 0 003.997 3.997 3.996 3.996 0 003.998-3.996c0-50.695-41.245-91.935-91.935-91.935z"/><path d="M255.819 55.961a3.995 3.995 0 00-3.998 3.997 3.995 3.995 0 003.998 3.997c37.466 0 67.952 30.482 67.952 67.952a3.994 3.994 0 003.997 3.997 3.994 3.994 0 003.997-3.997c0-41.876-34.069-75.946-75.946-75.946zm87.938 71.948a3.995 3.995 0 00-3.997 3.997 83.933 83.933 0 01-3.162 22.895 4 4 0 007.698 2.177 92.198 92.198 0 003.458-25.072 3.995 3.995 0 00-3.997-3.997z"/><path d="M327.767 127.91a3.994 3.994 0 00-3.997 3.997c0 7.784-1.297 15.407-3.865 22.66a4 4 0 007.542 2.662c2.865-8.107 4.317-16.629 4.317-25.322a3.994 3.994 0 00-3.997-3.997zm-124.013 89.8a3.992 3.992 0 00-5.512-1.245c-31.525 19.9-50.347 54.032-50.347 91.318 0 2.21 1.788 3.997 3.997 3.997s3.997-1.787 3.998-3.996c0-34.523 17.425-66.133 46.615-84.558a4 4 0 001.249-5.516z"/><path d="M228.379 224.104c-.781-2.061-3.099-3.107-5.153-2.323-35.498 13.44-59.341 47.998-59.341 86.002 0 2.21 1.788 3.997 3.997 3.997s3.997-1.787 3.997-3.998c0-34.694 21.775-66.253 54.173-78.522a4 4 0 002.327-5.156zm27.44 183.609c-55.102 0-99.93-44.827-99.93-99.93 0-2.209-1.788-3.997-3.997-3.997s-3.997 1.788-3.997 3.997c0 59.505 48.411 107.924 107.924 107.924a3.995 3.995 0 003.997-3.997 3.995 3.995 0 00-3.997-3.997z"/><path d="M255.819 391.722c-46.288 0-83.941-37.66-83.941-83.94a3.994 3.994 0 00-3.997-3.997 3.995 3.995 0 00-3.997 3.997c0 50.699 41.245 91.936 91.936 91.936a3.994 3.994 0 003.996-3.998 3.996 3.996 0 00-3.997-3.998z"/><path d="M336.263 432.336c-18.784-25.426-48.856-40.604-80.459-40.604a3.995 3.995 0 00-3.997 3.998 3.994 3.994 0 003.997 3.997c29.073 0 56.749 13.966 74.025 37.356a3.994 3.994 0 003.217 1.624c.827 0 1.663-.25 2.373-.781a3.992 3.992 0 00.844-5.59z"/><path d="M321.165 438.925c-16.021-19.829-39.84-31.212-65.345-31.212a3.995 3.995 0 00-3.998 3.997 3.995 3.995 0 003.998 3.997c23.077 0 44.632 10.29 59.13 28.246a3.988 3.988 0 003.107 1.483 3.996 3.996 0 003.108-6.511z"/></symbol><symbol viewBox="-319.78 -319.78 1151.19 1151.19" id="anchor-3" xmlns="http://www.w3.org/2000/svg"><path d="M154.571 384.761l-79.944-71.949a4.037 4.037 0 00-4.442-.625 3.99 3.99 0 00-2.217 3.903l7.994 103.926a3.986 3.986 0 003.974 3.686c.11 0 .211 0 .313-.015a3.993 3.993 0 003.677-4.295l-7.222-93.965 72.512 65.267a3.995 3.995 0 005.652-.296 3.991 3.991 0 00-.297-5.637z"/><path d="M259.434 505.94c-3.216-6.846-14.685-8.947-32.04-12.116-36.459-6.675-97.47-17.847-119.681-83.395a3.994 3.994 0 00-5.067-2.506 3.994 3.994 0 00-2.506 5.066c23.726 70.014 87.634 81.709 125.81 88.688 11.617 2.132 24.78 4.544 26.255 7.667a3.983 3.983 0 003.615 2.295c.569 0 1.155-.125 1.702-.375a3.998 3.998 0 001.912-5.324z"/><path d="M243.804 459.278c-.219-2.194-2.209-3.772-4.372-3.584-.773.071-77.391 6.903-107.331-61.573a3.997 3.997 0 00-7.323 3.2c26.762 61.23 88.071 66.57 108.611 66.57 4.201 0 6.699-.218 6.839-.234a3.996 3.996 0 003.576-4.379zm-1.146-242.258l-15.988-15.989a3.996 3.996 0 00-2.826-1.171h-77.852a3.995 3.995 0 00-3.997 3.997 3.995 3.995 0 003.997 3.998h76.196l13.646 13.646v160.527a3.995 3.995 0 003.997 3.997 3.996 3.996 0 003.998-3.996V219.846a3.992 3.992 0 00-1.171-2.826z"/><path d="M239.83 418.603a3.995 3.995 0 00-3.997 3.997v37.077a3.994 3.994 0 003.997 3.996 3.996 3.996 0 003.998-3.997V422.6a3.995 3.995 0 00-3.998-3.997zm-87.282-34.819l-47.966-7.994c-1.593-.25-3.24.477-4.083 1.882l-23.983 39.972a3.994 3.994 0 001.374 5.488 3.99 3.99 0 005.48-1.366l22.586-37.646 45.28 7.549c2.132.391 4.232-1.099 4.599-3.286a3.995 3.995 0 00-3.287-4.599zm288.906-71.598a4.04 4.04 0 00-4.442.625l-79.943 71.949a3.989 3.989 0 00-.297 5.637 4.015 4.015 0 005.652.296l72.511-65.267-7.222 93.965a3.995 3.995 0 003.678 4.295c.101.016.203.016.312.016a3.993 3.993 0 003.974-3.686l7.994-103.927a3.99 3.99 0 00-2.217-3.903z"/><path d="M408.993 407.923c-2.076-.718-4.364.413-5.066 2.506-22.43 66.204-83.98 77.352-120.751 84.019-17.3 3.138-27.746 5.036-30.932 11.406-.983 1.975-.187 4.38 1.788 5.363a4.084 4.084 0 001.788.422c1.46 0 2.873-.812 3.575-2.21 1.397-2.795 14.045-5.083 25.209-7.112 38.504-6.979 102.952-18.659 126.895-89.328a3.994 3.994 0 00-2.506-5.066z"/><path d="M384.799 392.059a4.005 4.005 0 00-5.263 2.062c-29.885 68.366-104.161 61.885-107.338 61.573-2.147-.179-4.145 1.39-4.364 3.592a3.999 3.999 0 003.576 4.371c.14.015 2.631.234 6.838.234 20.549 0 81.857-5.347 108.612-66.57a3.998 3.998 0 00-2.061-5.262zm-10.923-192.2h-86.08a3.995 3.995 0 00-2.826 1.171l-15.989 15.989a3.995 3.995 0 00-1.171 2.826v165.087a3.994 3.994 0 003.997 3.996 3.994 3.994 0 003.997-3.996V221.5l13.646-13.646h84.426a3.994 3.994 0 003.996-3.998 3.993 3.993 0 00-3.996-3.997z"/><path d="M271.808 421.61a3.995 3.995 0 00-3.997 3.997v34.07a3.994 3.994 0 003.997 3.996 3.994 3.994 0 003.997-3.996v-34.07a3.995 3.995 0 00-3.997-3.997zm102.053-253.728h-84.41l-14.817-14.817c-1.561-1.562-4.09-1.561-5.652 0s-1.562 4.09 0 5.652l15.989 15.988a3.991 3.991 0 002.826 1.172h86.064a3.994 3.994 0 003.996-3.998 3.993 3.993 0 00-3.996-3.997zm-131.206-14.817a3.994 3.994 0 00-5.652 0l-14.817 14.817h-76.54a3.995 3.995 0 00-3.997 3.997 3.995 3.995 0 003.997 3.998h78.195a3.991 3.991 0 002.826-1.172l15.988-15.988a3.995 3.995 0 000-5.652zm192.466 264.579l-23.983-39.972a4.01 4.01 0 00-4.082-1.882l-47.967 7.994a3.997 3.997 0 00-3.287 4.599c.368 2.186 2.476 3.677 4.599 3.286l45.28-7.549 22.586 37.645a3.995 3.995 0 005.48 1.367 3.992 3.992 0 001.374-5.488z"/><path d="M151.72 192.091c-2.045-.711-4.356.363-5.098 2.439-2.81 7.97-10.383 13.323-18.838 13.323-11.023 0-19.985-8.967-19.985-19.986s8.962-19.986 19.985-19.986c8.447 0 16.013 5.349 18.846 13.308.734 2.076 3.029 3.146 5.098 2.428a3.99 3.99 0 002.428-5.105c-3.95-11.141-14.552-18.624-26.372-18.624-15.427 0-27.98 12.554-27.98 27.98s12.553 27.98 27.98 27.98c11.844 0 22.437-7.499 26.379-18.655a4 4 0 00-2.443-5.102zm240.003-32.204c-11.851.008-22.452 7.507-26.379 18.659a3.995 3.995 0 002.443 5.098c2.084.722 4.365-.363 5.098-2.443 2.803-7.959 10.376-13.311 18.838-13.319 11.023 0 19.986 8.967 19.986 19.986s-8.963 19.986-19.986 19.986h-.016c-8.438 0-16.004-5.345-18.822-13.304a3.996 3.996 0 00-5.105-2.432 3.998 3.998 0 00-2.436 5.102c3.95 11.145 14.543 18.628 26.355 18.628l.024-.001c15.427 0 27.98-12.554 27.98-27.98.001-15.426-12.551-27.98-27.98-27.98zm-97.44-78.999a3.989 3.989 0 00-5.645.324c-6.651 7.46-15.7 12.471-25.489 14.111a3.999 3.999 0 001.326 7.886c11.57-1.941 22.274-7.862 30.128-16.68a3.994 3.994 0 00-.32-5.641zm12.758-37.673C302.795 18.175 281.246 0 255.819 0c-28.652 0-51.964 23.312-51.964 51.963 0 25.486 18.214 47.041 43.306 51.245a3.997 3.997 0 004.606-3.282 3.993 3.993 0 00-3.279-4.602c-21.227-3.556-36.638-21.793-36.638-43.36 0-24.244 19.728-43.969 43.969-43.969 21.516 0 39.745 15.376 43.338 36.555.374 2.182 2.498 3.63 4.613 3.275a4.006 4.006 0 003.271-4.61z"/><path d="M272.947 29.843c-4.949-3.833-10.867-5.859-17.128-5.859-15.426 0-27.98 12.554-27.98 27.98s12.553 27.98 27.98 27.98c4.638 0 9.235-1.159 13.288-3.358a3.997 3.997 0 001.608-5.418c-1.046-1.947-3.482-2.646-5.418-1.608a19.71 19.71 0 01-9.478 2.39c-11.023 0-19.986-8.968-19.986-19.987s8.963-19.985 19.986-19.985c4.474 0 8.697 1.444 12.226 4.181a3.993 3.993 0 005.613-.711 3.997 3.997 0 00-.711-5.605z"/><path d="M255.819 55.96a4.002 4.002 0 01-3.998-3.997 4.003 4.003 0 013.998-3.997 3.995 3.995 0 003.997-3.997 3.994 3.994 0 00-3.997-3.997c-6.613 0-11.992 5.38-11.992 11.992s5.379 11.991 11.992 11.991a3.995 3.995 0 003.997-3.998 3.994 3.994 0 00-3.997-3.997zM239.83 93.208a3.995 3.995 0 00-3.997 3.997v58.685a3.995 3.995 0 003.997 3.997 3.996 3.996 0 003.998-3.996V97.205a3.995 3.995 0 00-3.998-3.997zm31.978 0a3.995 3.995 0 00-3.997 3.997v58.685a3.995 3.995 0 003.997 3.997 3.994 3.994 0 003.997-3.996V97.205a3.995 3.995 0 00-3.997-3.997zm-1.171 79.843a3.994 3.994 0 00-5.652 0l-23.983 23.982a3.994 3.994 0 000 5.652c.781.781 1.803 1.171 2.826 1.171s2.046-.39 2.826-1.171l23.983-23.982a3.996 3.996 0 000-5.652z"/><path d="M270.637 197.033l-23.983-23.982a3.994 3.994 0 00-5.652 0 3.994 3.994 0 000 5.652l23.983 23.982a3.984 3.984 0 002.826 1.171c1.023 0 2.045-.39 2.826-1.171a3.994 3.994 0 000-5.652zM255.82 39.973a3.995 3.995 0 00-3.998 3.997 3.995 3.995 0 003.998 3.997c46.287 0 83.94 37.657 83.94 83.94a3.994 3.994 0 003.997 3.997 3.996 3.996 0 003.998-3.996c0-50.695-41.245-91.935-91.935-91.935z"/><path d="M255.819 55.961a3.995 3.995 0 00-3.998 3.997 3.995 3.995 0 003.998 3.997c37.466 0 67.952 30.482 67.952 67.952a3.994 3.994 0 003.997 3.997 3.994 3.994 0 003.997-3.997c0-41.876-34.069-75.946-75.946-75.946zm87.938 71.948a3.995 3.995 0 00-3.997 3.997 83.933 83.933 0 01-3.162 22.895 4 4 0 007.698 2.177 92.198 92.198 0 003.458-25.072 3.995 3.995 0 00-3.997-3.997z"/><path d="M327.767 127.91a3.994 3.994 0 00-3.997 3.997c0 7.784-1.297 15.407-3.865 22.66a4 4 0 007.542 2.662c2.865-8.107 4.317-16.629 4.317-25.322a3.994 3.994 0 00-3.997-3.997zm-124.013 89.8a3.992 3.992 0 00-5.512-1.245c-31.525 19.9-50.347 54.032-50.347 91.318 0 2.21 1.788 3.997 3.997 3.997s3.997-1.787 3.998-3.996c0-34.523 17.425-66.133 46.615-84.558a4 4 0 001.249-5.516z"/><path d="M228.379 224.104c-.781-2.061-3.099-3.107-5.153-2.323-35.498 13.44-59.341 47.998-59.341 86.002 0 2.21 1.788 3.997 3.997 3.997s3.997-1.787 3.997-3.998c0-34.694 21.775-66.253 54.173-78.522a4 4 0 002.327-5.156zm27.44 183.609c-55.102 0-99.93-44.827-99.93-99.93 0-2.209-1.788-3.997-3.997-3.997s-3.997 1.788-3.997 3.997c0 59.505 48.411 107.924 107.924 107.924a3.995 3.995 0 003.997-3.997 3.995 3.995 0 00-3.997-3.997z"/><path d="M255.819 391.722c-46.288 0-83.941-37.66-83.941-83.94a3.994 3.994 0 00-3.997-3.997 3.995 3.995 0 00-3.997 3.997c0 50.699 41.245 91.936 91.936 91.936a3.994 3.994 0 003.996-3.998 3.996 3.996 0 00-3.997-3.998z"/><path d="M336.263 432.336c-18.784-25.426-48.856-40.604-80.459-40.604a3.995 3.995 0 00-3.997 3.998 3.994 3.994 0 003.997 3.997c29.073 0 56.749 13.966 74.025 37.356a3.994 3.994 0 003.217 1.624c.827 0 1.663-.25 2.373-.781a3.992 3.992 0 00.844-5.59z"/><path d="M321.165 438.925c-16.021-19.829-39.84-31.212-65.345-31.212a3.995 3.995 0 00-3.998 3.997 3.995 3.995 0 003.998 3.997c23.077 0 44.632 10.29 59.13 28.246a3.988 3.988 0 003.107 1.483 3.996 3.996 0 003.108-6.511z"/></symbol><symbol viewBox="-320 -320 1152 1152" id="anchor-4" xmlns="http://www.w3.org/2000/svg"><path d="M317.193 132.84c.373.006.755.032 1.125.032 1.966 0 3.886-.095 5.748-.286 11.653-1.204 20.058-6.063 23.887-13.752 12.138-6.845 21.924-8.788 29.852-5.916 15.645 5.664 24.592 30.763 32.484 52.907 8.51 23.872 16.546 46.419 34.077 50.367 1.686.38 3.401.57 5.148.57 9.819 0 20.628-6.017 32.866-18.252 3.037-3.039 3.039-8.115 0-11.152-3.038-3.037-8.115-3.036-11.152 0-9.994 9.995-18.084 14.653-23.397 13.45-9.056-2.039-16.297-22.354-22.685-40.277-9.063-25.427-19.337-54.247-41.972-62.442-10.345-3.743-21.772-2.806-34.693 2.857-2.42-6.58-7.491-13.232-14.976-19.286-.087-.07-.181-.13-.27-.198C332.099 36.352 295.079 0 249.701 0c-46.089 0-83.586 37.496-83.586 83.586 0 24.928 11.131 48.024 29.381 63.61H174a7.886 7.886 0 00-7.886 7.885v50.467a7.885 7.885 0 007.886 7.885h42.582v184.021c-37.145-4.947-59.233-17.922-71.438-28.321-11.53-9.822-16.503-19.131-17.932-22.195v-19.953h25.759c3.271 0 6.272-2.096 7.4-5.166 1.166-3.172.13-6.832-2.528-8.921l-58.878-46.262a7.885 7.885 0 00-9.744 0l-58.878 46.262c-2.658 2.089-3.694 5.749-2.528 8.921 1.128 3.069 4.129 5.166 7.4 5.166h25.759v38.376c0 78.686 58.962 96.035 110.982 111.341 28.528 8.393 55.473 16.322 72.169 33.019 3.036 3.036 8.116 3.034 11.152 0 16.696-16.697 43.642-24.626 72.169-33.019 52.02-15.307 110.982-32.657 110.982-111.341v-38.376h25.759c3.27 0 6.272-2.096 7.4-5.166 1.165-3.172.13-6.832-2.528-8.921l-58.878-46.262a7.885 7.885 0 00-9.744 0l-58.878 46.262a7.886 7.886 0 004.872 14.087h25.759v19.982c-3.027 6.622-22.067 41.575-89.369 50.49v-124.62a7.885 7.885 0 10-15.77 0v133.442c0 4.569 4.063 8.286 8.618 7.852 91.37-8.533 111.04-60.721 111.832-62.938.304-.853.461-1.75.461-2.654V319.1a7.884 7.884 0 00-7.885-7.885h-10.845l36.079-28.348 36.078 28.347h-10.845a7.885 7.885 0 00-7.886 7.885v46.262c0 66.887-48.41 81.131-99.662 96.213-26.519 7.804-53.862 15.849-73.293 31.93-19.432-16.081-46.774-24.126-73.293-31.93-51.253-15.081-99.662-29.326-99.662-96.213V319.1a7.885 7.885 0 00-7.886-7.885H58.015l36.079-28.348 36.079 28.348h-10.845a7.885 7.885 0 00-7.885 7.885v29.439c0 .904.156 1.802.461 2.654.793 2.217 20.461 54.405 111.832 62.938 4.556.417 8.618-3.271 8.618-7.852v-200.73a7.885 7.885 0 00-7.885-7.885h-42.582v-34.696h42.582c3.804 0 7.146-2.827 7.776-6.579.633-3.77-1.52-7.578-5.148-8.861-27.042-9.56-45.21-35.257-45.21-63.941 0-37.393 30.422-67.815 67.815-67.815s67.815 30.422 67.815 67.815a67.65 67.65 0 01-8.413 32.67c-4.717-.813-9.635-2.203-14.438-4.119a73.99 73.99 0 01-10.609-5.245 41.294 41.294 0 007.175-23.306c0-22.9-18.631-41.53-41.53-41.53s-41.53 18.631-41.53 41.53 18.631 41.53 41.53 41.53a41.287 41.287 0 0022.823-6.857c4.903 3.281 10.406 6.176 16.297 8.526a90.863 90.863 0 0010.148 3.361 67.62 67.62 0 01-26.663 17.381c-3.634 1.285-5.773 5.089-5.148 8.861.622 3.751 3.979 6.579 7.776 6.579h42.582v34.696h-42.582a7.884 7.884 0 00-7.885 7.886v33.645c0 4.356 3.53 7.885 7.885 7.885s7.885-3.53 7.885-7.885v-25.758h42.582a7.884 7.884 0 007.885-7.885v-50.467a7.884 7.884 0 00-7.885-7.885h-21.495a84.09 84.09 0 0013.286-14.36zm14.062-30.96c2.836 4.056 3.569 7.489 2.75 9.541-.839 2.104-3.493 3.783-7.361 4.755a83.38 83.38 0 004.611-14.296zm-81.554 7.465c-14.204.001-25.759-11.554-25.759-25.758 0-14.204 11.556-25.759 25.759-25.759 7.014 0 13.379 2.821 18.028 7.383-7.691 2.514-13.234 7.168-15.752 13.48-3.431 8.596-.842 18.553 7.288 28.039.163.19.338.376.504.566a25.648 25.648 0 01-10.068 2.049zm21.996-12.367c-.151-.17-.31-.341-.457-.512-4.006-4.674-5.73-9.134-4.615-11.931.92-2.306 4.049-4.098 8.512-5.011.21 1.324.323 2.68.323 4.063 0 4.901-1.378 9.486-3.763 13.391z"/></symbol><symbol viewBox="-20 -20 72 72" id="compass" xmlns="http://www.w3.org/2000/svg"><path d="M16 0C7.163 0 0 7.163 0 16s7.163 16 16 16 16-7.163 16-16S24.837 0 16 0zM3 16C3 8.82 8.82 3 16 3c3.424 0 6.538 1.325 8.86 3.488L12 12 6.488 24.86A12.952 12.952 0 013 16zm15.286 2.286l-8.003 3.43 3.43-8.003 4.573 4.573zM16 29a12.955 12.955 0 01-8.86-3.488L20 20l5.512-12.86A12.952 12.952 0 0129 16c0 7.18-5.82 13-13 13z"/></symbol><symbol viewBox="-20 -20 72 72" id="diving-goggles" xmlns="http://www.w3.org/2000/svg"><path d="M16 21h2v-3h-7v3h2c0 3.866 0 0 0 0a8 8 0 0016 .004V4h-3v17.008A5 5 0 0116 21s0 1.975 0 0zM27 9V5h1v4h-1zM4 11.5v.499A4.996 4.996 0 008.994 17h1.003c.554 0 1.255-.36 1.581-.826l1.776-2.537c.633-.904 1.661-.899 2.288 0l1.769 2.537c.318.456 1.015.826 1.581.826h1.005A5.002 5.002 0 0025 11.999V11.5C25 8.462 22.529 6 19.51 6H9.49C6.458 6 4 8.469 4 11.5zM19.51 7C21.981 7 24 9.019 24 11.5v.499A4.002 4.002 0 0119.997 16h-1.005c-.234 0-.627-.206-.76-.398l-1.769-2.537c-1.026-1.471-2.897-1.474-3.927-.001l-1.776 2.537c-.136.195-.529.399-.762.399H8.995a3.996 3.996 0 01-3.994-4.001V11.5c0-2.482 2.013-4.5 4.49-4.5h10.02zm0 1A3.496 3.496 0 0123 11.485v.497a2.996 2.996 0 01-3.003 2.988h-1.005c.093 0 .007-.045.06.03l-1.769-2.526c-1.423-2.032-4.138-2.036-5.567-.003L9.94 14.997c.051-.072-.036-.027.058-.027H8.995a2.99 2.99 0 01-2.994-2.988v-.497A3.491 3.491 0 019.491 8h10.02z"/></symbol><symbol viewBox="-319.98 -319.98 1151.94 1151.94" id="email" xmlns="http://www.w3.org/2000/svg"><path d="M511.872 195.725a8.065 8.065 0 00-.35-1.732 8.533 8.533 0 00-.486-1.468 7.655 7.655 0 00-.853-1.306 8.046 8.046 0 00-1.135-1.323c-.137-.119-.196-.282-.341-.401l-82.065-63.735V59.704c0-14.138-11.462-25.6-25.6-25.6h-92.476L271.539 5.355a25.302 25.302 0 00-31.121 0l-37.035 28.749h-92.476c-14.138 0-25.6 11.461-25.6 25.6v66.057L3.268 189.496c-.145.12-.205.282-.341.401a8.005 8.005 0 00-1.135 1.323 7.616 7.616 0 00-.853 1.306 8.42 8.42 0 00-.486 1.468 8.087 8.087 0 00-.35 1.707c0 .179-.102.333-.102.512V486.37a25.313 25.313 0 005.009 15.061c.051.077.06.171.119.239.06.068.188.145.273.239a25.475 25.475 0 0020.173 10.061h460.8a25.482 25.482 0 0020.241-10.103c.068-.085.171-.111.23-.196.06-.085.068-.162.12-.239a25.317 25.317 0 005.009-15.061V196.237c-.001-.179-.094-.333-.103-.512zM250.854 18.82a8.182 8.182 0 0110.18 0l19.686 15.283h-49.493l19.627-15.283zM27.725 494.904l223.13-173.321a8.193 8.193 0 0110.18 0l223.189 173.321H27.725zM494.908 481.6L271.539 308.117a25.319 25.319 0 00-31.121 0L17.041 481.6V209.233L156.877 317.82a8.536 8.536 0 0011.977-1.515 8.536 8.536 0 00-1.515-11.977L25.276 194.018l60.032-46.652v65.937a8.533 8.533 0 0017.066 0v-153.6a8.533 8.533 0 018.533-8.533H401.04a8.533 8.533 0 018.533 8.533v153.6a8.533 8.533 0 0017.066 0v-65.937l60.032 46.652-142.31 110.507a8.533 8.533 0 1010.462 13.482l140.083-108.774V481.6z"/><path d="M358.374 204.77v-34.133c0-56.554-45.846-102.4-102.4-102.4-56.554 0-102.4 45.846-102.4 102.4s45.846 102.4 102.4 102.4c4.713 0 8.533-3.82 8.533-8.533s-3.82-8.533-8.533-8.533c-47.128 0-85.333-38.205-85.333-85.333s38.205-85.333 85.333-85.333 85.333 38.205 85.333 85.333v34.133c0 9.426-7.641 17.067-17.067 17.067s-17.067-7.641-17.067-17.067v-34.133c0-4.713-3.82-8.533-8.533-8.533s-8.533 3.82-8.533 8.533c0 18.851-15.282 34.133-34.133 34.133-18.851 0-34.133-15.282-34.133-34.133s15.282-34.133 34.133-34.133c4.713 0 8.533-3.82 8.533-8.533s-3.82-8.533-8.533-8.533c-22.915-.051-43.074 15.13-49.354 37.168-6.28 22.038 2.847 45.565 22.347 57.601 19.5 12.036 44.622 9.65 61.507-5.843 1.858 18.046 17.543 31.464 35.659 30.505 18.117-.96 32.298-15.958 32.241-34.1z"/></symbol><symbol viewBox="-10.62 -10.62 38.25 38.25" id="facebook" xmlns="http://www.w3.org/2000/svg"><path d="M12.461 5.57l-.309 2.93H9.81V17H6.292V8.5H4.539V5.57h1.753V3.806C6.292 1.423 7.283 0 10.1 0h2.341v2.93h-1.465c-1.093 0-1.166.413-1.166 1.176V5.57h2.651z"/></symbol><symbol viewBox="-10.62 -10.62 38.25 38.25" id="heart" xmlns="http://www.w3.org/2000/svg"><path d="M12.5.658a4.506 4.506 0 00-4 2.439 4.506 4.506 0 00-4-2.439 4.505 4.505 0 00-4.5 4.5c0 .343.048.699.154 1.118l.109.351c1.432 4.354 7.659 9.393 7.924 9.604l.313.252.313-.252c.282-.227 6.926-5.598 7.927-9.614l.112-.368c.101-.402.148-.749.148-1.091 0-2.481-2.019-4.5-4.5-4.5zm3.389 5.322l-.113.37c-.809 3.246-5.946 7.727-7.276 8.843-1.282-1.083-6.122-5.337-7.285-8.872l-.1-.316A3.517 3.517 0 011 5.158c0-1.93 1.57-3.5 3.5-3.5S8 3.229 8 5.158v.252h1v-.252c0-1.93 1.57-3.5 3.5-3.5s3.5 1.57 3.5 3.5c0 .258-.038.527-.111.822z"/></symbol><symbol viewBox="-320 -320 1152 1152" id="hotel" xmlns="http://www.w3.org/2000/svg"><path d="M240 176h32v48h-32zm80 32h16v16h-16zm-32-32h16v16h-16zm-80 0h16v16h-16zm0 32h16v16h-16zm-80-32h32v48h-32zm48 32h16v16h-16zm112 0h16v16h-16zM176 80h160v32H176zM72 128h368v32H72zm328 80h40v16h-40zm0-32h40v16h-40zm-80 0h16v16h-16zm-248 0h40v16H72zm280 0h32v48h-32zm-64 144h16v16h-16zm-48-32h32v48h-32zM72 208h40v16H72zm368 81.013V288h-40v16h20.305A32.12 32.12 0 01440 289.013zM288 288h16v16h-16zm32 0h16v16h-16zm0 32h16v16h-16zm98.656 12.8A31.807 31.807 0 01416 320h-16v16h15.978a40.015 40.015 0 012.678-3.2zM352 288h32v48h-32zm-144 32h16v16h-16zM72 447.321V448h56v-16H99.739A47.974 47.974 0 0172 447.321zM112 320H96a31.807 31.807 0 01-2.656 12.8 40.015 40.015 0 012.678 3.2H112zm24 82.245L118.806 416h34.388zM72 240h368v32H72zm104 48h16v16h-16zm0 32h16v16h-16zm-48-32h32v48h-32zm280.816 80a39.945 39.945 0 01-.816-8 40.535 40.535 0 01.8-8H103.2a40.535 40.535 0 01.8 8 39.945 39.945 0 01-.816 8zM208 288h16v16h-16zM91.7 304H112v-16H72v1.013A32.12 32.12 0 0191.7 304zM470 369.6a24.006 24.006 0 00-7.6-28.806 8 8 0 01-1.592-11.2A15.851 15.851 0 00464 320a16 16 0 00-32 0 15.851 15.851 0 003.2 9.6 8 8 0 01-1.592 11.2A24.006 24.006 0 00426 369.6a8 8 0 01-1.464 8.647A31.993 31.993 0 00440 430.987V408a8 8 0 0116 0v22.987a31.993 31.993 0 0015.461-52.738A8 8 0 01470 369.6zM232 416h16v64h-16zM72 464h112v16H72zm0-33.013a31.993 31.993 0 0015.461-52.738A8 8 0 0186 369.6a24.006 24.006 0 00-7.6-28.8 8 8 0 01-1.6-11.2A15.851 15.851 0 0080 320a16 16 0 00-32 0 15.851 15.851 0 003.2 9.6 8 8 0 01-1.6 11.2 24.006 24.006 0 00-7.6 28.8 8 8 0 01-1.464 8.647A31.993 31.993 0 0056 430.987V408a8 8 0 0116 0zM264 416h16v64h-16zm64 48h112v16H328zm84.261-32H384v16h56v-.679A47.974 47.974 0 01412.261 432zm-53.455-16h34.388L376 402.245z"/><path d="M368 432h-32a8 8 0 01-5-14.247l40-32a8 8 0 0110 0l19.027 15.222c-.007-.326-.025-.648-.025-.975a47.955 47.955 0 012.747-16H109.253A47.955 47.955 0 01112 400c0 .327-.018.649-.025.975L131 385.753a8 8 0 0110 0l40 32A8 8 0 01176 432h-32v16h48a8 8 0 018 8v24h16v-72a8 8 0 018-8h64a8 8 0 018 8v72h16v-24a8 8 0 018-8h48zM176 176h16v16h-16zM24 464a8 8 0 000 16h32v-16zm464 0h-32v16h32a8 8 0 000-16z"/></symbol><symbol viewBox="-10.62 -10.62 38.25 38.25" id="instagram" xmlns="http://www.w3.org/2000/svg"><path d="M13 0H4C1.8 0 0 1.8 0 4v9c0 2.2 1.8 4 4 4h9c2.2 0 4-1.8 4-4V4c0-2.2-1.8-4-4-4zm3 13c0 1.654-1.346 3-3 3H4c-1.654 0-3-1.346-3-3V7h3.207a4.691 4.691 0 00-.457 2c0 2.619 2.131 4.75 4.75 4.75s4.75-2.131 4.75-4.75c0-.717-.171-1.39-.457-2H16v6zm-3.75-4c0 2.068-1.682 3.75-3.75 3.75S4.75 11.068 4.75 9 6.432 5.25 8.5 5.25 12.25 6.932 12.25 9zm-.098-3C11.28 4.941 9.976 4.25 8.5 4.25S5.72 4.941 4.848 6H1V4c0-1.654 1.346-3 3-3h9c1.654 0 3 1.346 3 3v2h-3.848zm2.302-3.278V4.02a.544.544 0 01-.542.543h-1.368A.546.546 0 0112 4.02V2.722c0-.299.244-.543.544-.543h1.368c.298 0 .542.244.542.543z"/></symbol><symbol viewBox="-20 -20 72 72" id="lifebuoy" xmlns="http://www.w3.org/2000/svg"><path d="M16 0C7.163 0 0 7.163 0 16s7.163 16 16 16 16-7.163 16-16S24.837 0 16 0zm-6 16a6 6 0 1112 0 6 6 0 01-12 0zm18.937 5.359l-5.544-2.297c.391-.943.608-1.977.608-3.062s-.216-2.119-.608-3.062l5.544-2.297C29.622 12.292 30 14.101 30 16s-.379 3.708-1.063 5.359zM21.359 3.063l-2.297 5.544C18.119 8.216 17.085 8 16 8s-2.119.216-3.062.607l-2.297-5.544C12.292 2.379 14.101 2 16 2s3.708.379 5.359 1.063zM3.063 10.641l5.544 2.297c-.391.943-.608 1.977-.608 3.062s.216 2.119.607 3.062l-5.544 2.297c-.685-1.651-1.063-3.46-1.063-5.359s.379-3.708 1.063-5.359zm7.578 18.296l2.297-5.544c.943.391 1.977.608 3.062.608s2.119-.216 3.062-.608l2.297 5.544C19.708 29.621 17.899 30 16 30s-3.708-.379-5.359-1.063z"/></symbol><symbol viewBox="-10.62 -10.62 38.25 38.25" id="location-pin" xmlns="http://www.w3.org/2000/svg"><path d="M8.5.5A5.506 5.506 0 003 6c0 4.373 4.913 10.086 5.122 10.328l.378.435.378-.436C9.087 16.086 14 10.373 14 6 14 2.967 11.532.5 8.5.5zm0 14.715C7.354 13.791 4 9.336 4 6c0-2.481 2.019-4.5 4.5-4.5S13 3.519 13 6c0 3.333-3.354 7.791-4.5 9.215zm0-12.076c-1.654 0-3 1.346-3 3s1.346 3 3 3 3-1.346 3-3-1.346-3-3-3zm0 5c-1.103 0-2-.897-2-2s.897-2 2-2 2 .897 2 2-.897 2-2 2z"/></symbol><symbol viewBox="-310 -334 1116 1116" id="mail" xmlns="http://www.w3.org/2000/svg"><path d="M493.535 194.234L440 142.832V80c-.027-22.078-17.918-39.973-40-40h-67.105l-39.36-37.773a7.993 7.993 0 00-11.07 0L243.105 40H144c-22.082.027-39.973 17.922-40 40v32a8 8 0 008 8h24v22.832l-53.535 51.402A7.904 7.904 0 0080 200v240a8 8 0 008 8h400a8 8 0 008-8V200a7.93 7.93 0 00-2.48-5.75zM440 165.008L468.121 192H440zM440 208h23.2L440 224.703zm-64-96V80c0-13.254 10.746-24 24-24s24 10.746 24 24v156.227l-136 97.918-136-97.918V120h216a8 8 0 008-8zm-88-92.91L309.793 40h-43.586zM120 104V80c0-13.254 10.746-24 24-24h224.207A39.604 39.604 0 00360 80v24zm16 61.008V192h-28.121zM136 208v16.703L112.8 208zm-40 7.617l154.71 111.39L96 425.427zM115.488 432l149.215-94.918 18.625 13.414a8 8 0 009.344 0l18.625-13.414L460.512 432zM480 425.426l-154.71-98.403L480 215.617zm0 0"/><path d="M200 192h160v16H200zm0-32h160v16H200zm0 64h160v16H200zM0 104h80v16H0zm24 32h88v16H24zm0 0"/></symbol><symbol viewBox="-10.62 -10.62 38.25 38.25" id="menu" xmlns="http://www.w3.org/2000/svg"><path d="M16 3v2H1V3h15zM1 10h15V8H1v2zm0 5h15v-2H1v2z"/></symbol><symbol viewBox="-320 -320 1152 1152" id="o2" xmlns="http://www.w3.org/2000/svg"><path d="M458.033 22.224h-36.366a7.496 7.496 0 00-4.359 1.397l-12.193 8.709h-42.618v-9.678C362.496 10.162 352.334 0 339.843 0s-22.652 10.162-22.652 22.652v9.678h-67.62a7.5 7.5 0 000 15h67.62v15.3H194.809v-15.3h19.727a7.5 7.5 0 000-15h-19.727v-9.678C194.809 10.162 184.647 0 172.156 0s-22.652 10.162-22.652 22.652v9.678h-42.618l-12.193-8.709a7.496 7.496 0 00-4.359-1.397H53.967a7.5 7.5 0 00-7.5 7.5v50.508a7.5 7.5 0 007.5 7.5h36.366a7.496 7.496 0 004.359-1.397l12.186-8.705h32.523v22.497c-27.39 12.675-45.457 40.582-45.457 71.02v200.559a7.5 7.5 0 0015 0v-23.352h126.422v88.037H108.945v-29.676a7.5 7.5 0 00-15 0V504.5a7.5 7.5 0 007.5 7.5h141.422a7.5 7.5 0 007.5-7.5V171.146c0-30.438-18.067-58.345-45.457-71.02V77.63h102.179v22.497c-27.39 12.675-45.457 40.582-45.457 71.02V504.5a7.5 7.5 0 007.5 7.5h141.422a7.5 7.5 0 007.5-7.5V228.487a7.5 7.5 0 00-15 0v9.912H276.632v-67.252c0-26.017 16.331-49.745 40.637-59.045a7.5 7.5 0 004.82-7.005V77.63h35.508v27.467a7.5 7.5 0 004.82 7.005c24.307 9.3 40.637 33.028 40.637 59.045v22.318a7.5 7.5 0 0015 0v-22.318c0-30.438-18.067-58.345-45.457-71.02V77.63h32.523l12.186 8.705a7.496 7.496 0 004.359 1.397h36.366a7.5 7.5 0 007.5-7.5V29.724a7.497 7.497 0 00-7.498-7.5zM276.632 318.049h126.422v15.305H276.632zm0 30.305h126.422v88.037H276.632zm126.423-45.305H276.632v-19.346h126.422v19.346zM276.632 497v-45.61h126.422V497zm126.423-243.602v15.305H276.632v-15.305zM339.844 15c4.22 0 7.652 3.433 7.652 7.652V62.63h-15.305V22.652c0-4.219 3.433-7.652 7.653-7.652zm-167.687 0c4.22 0 7.652 3.433 7.652 7.652V62.63h-15.305V22.652c0-4.219 3.433-7.652 7.653-7.652zM96.976 66.271l-9.046 6.461H61.467V37.224H87.93l9.045 6.461v22.586zM111.98 47.33h37.524v15.3H111.98zm-3.035 236.373h126.422v19.346H108.945zm126.423-15H108.945v-15.305h126.422v15.305zm-126.423 64.651v-15.305h126.422v15.305zm0 163.646v-45.61h126.422V497zm85.785-384.898c24.306 9.3 40.637 33.028 40.637 59.045v67.252H108.945v-67.252c0-26.017 16.331-49.745 40.637-59.045a7.5 7.5 0 004.82-7.005V77.63h35.508v27.467a7.503 7.503 0 004.82 7.005zM400.02 62.63h-37.524v-15.3h37.524zm50.513 10.102H424.07l-9.046-6.461V43.685l9.045-6.461h26.463v35.508z"/></symbol><symbol viewBox="-320 -320 1152 1152" id="oxygen-tube" xmlns="http://www.w3.org/2000/svg"><path d="M502 325.78h-18.139V106.573c0-39.244-31.946-71.171-71.213-71.171H391.56v-.119C391.56 19.688 378.866 7 363.265 7h-77.438c-15.603 0-28.296 12.688-28.296 28.283v.119h-76.868v-.119C180.662 19.688 167.969 7 152.367 7H74.929C59.326 7 46.633 19.688 46.633 35.283v.119H10c-5.523 0-10 4.478-10 10s4.477 10 10 10h36.633v.148c0 12.078 7.615 22.406 18.296 26.453v39.447c-26.041 16.283-43.399 45.2-43.399 78.097v91.104c0 5.522 4.477 10 10 10s10-4.478 10-10v-91.104c0-27.211 15.176-50.943 37.512-63.202a10.02 10.02 0 001.036-.547 71.7 71.7 0 0133.57-8.312 71.702 71.702 0 0133.573 8.313c.332.2.675.383 1.03.544 22.337 12.259 37.514 35.992 37.514 63.204v11.004h-63.154c-20.467 0-37.118 16.643-37.118 37.1v125.658c0 20.456 16.651 37.099 37.118 37.099h63.154v61.177c0 7.396-6.024 13.414-13.43 13.414H54.959c-7.405 0-13.43-6.018-13.43-13.414v-91.104c0-5.522-4.477-10-10-10s-10 4.478-10 10v91.104c0 18.425 14.997 33.414 33.43 33.414h117.376c18.433 0 33.43-14.989 33.43-33.414v-40.172h26.662v40.172c0 18.425 14.997 33.414 33.43 33.414h117.376c18.434 0 33.43-14.989 33.43-33.414V199.549c0-32.896-17.358-61.813-43.398-78.097V82.004c10.68-4.048 18.295-14.376 18.295-26.453v-.148h21.089c28.239 0 51.213 22.955 51.213 51.171V325.78h-18.139c-5.522 0-10 4.478-10 10v81.268c0 21.02 17.109 38.12 38.139 38.12S512 438.067 512 417.048V335.78c0-5.522-4.478-10-10-10zm-316.234 64.629h-63.154c-9.438 0-17.118-7.671-17.118-17.099V247.652c0-9.429 7.679-17.1 17.118-17.1h63.154zM277.53 35.283c0-4.567 3.722-8.283 8.296-8.283h77.438c4.574 0 8.295 3.716 8.295 8.283v20.268c0 4.567-3.721 8.283-8.295 8.283h-77.438c-4.574 0-8.296-3.716-8.296-8.283zm75.735 48.551v28.24a91.818 91.818 0 00-28.72-4.587 91.817 91.817 0 00-28.719 4.587v-28.24zm-210.898 28.24c-9.042-2.972-18.695-4.587-28.719-4.587s-19.677 1.615-28.719 4.587v-28.24h57.438zm18.295-56.523c0 4.567-3.721 8.283-8.295 8.283H74.929c-4.574 0-8.296-3.716-8.296-8.283V35.283c0-4.567 3.722-8.283 8.296-8.283h77.438c4.574 0 8.295 3.716 8.295 8.283zm71.765 355.863h-26.662v-53.757h26.662zm0-73.757h-26.662v-54.352h26.662zm0-74.351h-26.662v-53.757h26.662zm.546-73.757H205.22c-3.117-28.703-19.488-53.486-42.854-68.097V82.004c10.68-4.048 18.295-14.376 18.295-26.453v-.148h76.868v.148c0 12.078 7.615 22.406 18.296 26.453v39.448c-23.364 14.611-39.735 39.393-42.852 68.097zm163.69 200.86H333.48c-9.438 0-17.117-7.671-17.117-17.099V247.652c0-9.429 7.679-17.1 17.117-17.1h63.183zm0-190.86v11.004H333.48c-20.467 0-37.117 16.643-37.117 37.1v125.658c0 20.456 16.65 37.099 37.117 37.099h63.183v61.177c0 7.396-6.024 13.414-13.43 13.414H265.857c-7.405 0-13.43-6.018-13.43-13.414V199.549c0-27.212 15.177-50.945 37.515-63.204.355-.161.698-.344 1.03-.544a71.702 71.702 0 0133.573-8.314 71.687 71.687 0 0133.579 8.317c.328.198.667.379 1.019.538 22.34 12.259 37.52 35.993 37.52 63.207zM492 417.048c0 9.991-8.137 18.12-18.139 18.12s-18.139-8.129-18.139-18.12V345.78H492z"/><path d="M31.529 345.597c5.523 0 10-4.492 10-10.015s-4.477-10-10-10-10 4.478-10 10v.028c0 5.523 4.477 9.987 10 9.987z"/></symbol><symbol viewBox="-320 -320 1152 1152" id="oxygen-tube-1" xmlns="http://www.w3.org/2000/svg"><path d="M502 325.78h-18.139V106.573c0-39.244-31.946-71.171-71.213-71.171H391.56v-.119C391.56 19.688 378.866 7 363.265 7h-77.438c-15.603 0-28.296 12.688-28.296 28.283v.119h-76.868v-.119C180.662 19.688 167.969 7 152.367 7H74.929C59.326 7 46.633 19.688 46.633 35.283v.119H10c-5.523 0-10 4.478-10 10s4.477 10 10 10h36.633v.148c0 12.078 7.615 22.406 18.296 26.453v39.447c-26.041 16.283-43.399 45.2-43.399 78.097v91.104c0 5.522 4.477 10 10 10s10-4.478 10-10v-91.104c0-27.211 15.176-50.943 37.512-63.202a10.02 10.02 0 001.036-.547 71.7 71.7 0 0133.57-8.312 71.702 71.702 0 0133.573 8.313c.332.2.675.383 1.03.544 22.337 12.259 37.514 35.992 37.514 63.204v11.004h-63.154c-20.467 0-37.118 16.643-37.118 37.1v125.658c0 20.456 16.651 37.099 37.118 37.099h63.154v61.177c0 7.396-6.024 13.414-13.43 13.414H54.959c-7.405 0-13.43-6.018-13.43-13.414v-91.104c0-5.522-4.477-10-10-10s-10 4.478-10 10v91.104c0 18.425 14.997 33.414 33.43 33.414h117.376c18.433 0 33.43-14.989 33.43-33.414v-40.172h26.662v40.172c0 18.425 14.997 33.414 33.43 33.414h117.376c18.434 0 33.43-14.989 33.43-33.414V199.549c0-32.896-17.358-61.813-43.398-78.097V82.004c10.68-4.048 18.295-14.376 18.295-26.453v-.148h21.089c28.239 0 51.213 22.955 51.213 51.171V325.78h-18.139c-5.522 0-10 4.478-10 10v81.268c0 21.02 17.109 38.12 38.139 38.12S512 438.067 512 417.048V335.78c0-5.522-4.478-10-10-10zm-316.234 64.629h-63.154c-9.438 0-17.118-7.671-17.118-17.099V247.652c0-9.429 7.679-17.1 17.118-17.1h63.154zM277.53 35.283c0-4.567 3.722-8.283 8.296-8.283h77.438c4.574 0 8.295 3.716 8.295 8.283v20.268c0 4.567-3.721 8.283-8.295 8.283h-77.438c-4.574 0-8.296-3.716-8.296-8.283zm75.735 48.551v28.24a91.818 91.818 0 00-28.72-4.587 91.817 91.817 0 00-28.719 4.587v-28.24zm-210.898 28.24c-9.042-2.972-18.695-4.587-28.719-4.587s-19.677 1.615-28.719 4.587v-28.24h57.438zm18.295-56.523c0 4.567-3.721 8.283-8.295 8.283H74.929c-4.574 0-8.296-3.716-8.296-8.283V35.283c0-4.567 3.722-8.283 8.296-8.283h77.438c4.574 0 8.295 3.716 8.295 8.283zm71.765 355.863h-26.662v-53.757h26.662zm0-73.757h-26.662v-54.352h26.662zm0-74.351h-26.662v-53.757h26.662zm.546-73.757H205.22c-3.117-28.703-19.488-53.486-42.854-68.097V82.004c10.68-4.048 18.295-14.376 18.295-26.453v-.148h76.868v.148c0 12.078 7.615 22.406 18.296 26.453v39.448c-23.364 14.611-39.735 39.393-42.852 68.097zm163.69 200.86H333.48c-9.438 0-17.117-7.671-17.117-17.099V247.652c0-9.429 7.679-17.1 17.117-17.1h63.183zm0-190.86v11.004H333.48c-20.467 0-37.117 16.643-37.117 37.1v125.658c0 20.456 16.65 37.099 37.117 37.099h63.183v61.177c0 7.396-6.024 13.414-13.43 13.414H265.857c-7.405 0-13.43-6.018-13.43-13.414V199.549c0-27.212 15.177-50.945 37.515-63.204.355-.161.698-.344 1.03-.544a71.702 71.702 0 0133.573-8.314 71.687 71.687 0 0133.579 8.317c.328.198.667.379 1.019.538 22.34 12.259 37.52 35.993 37.52 63.207zM492 417.048c0 9.991-8.137 18.12-18.139 18.12s-18.139-8.129-18.139-18.12V345.78H492z"/><path d="M31.529 345.597c5.523 0 10-4.492 10-10.015s-4.477-10-10-10-10 4.478-10 10v.028c0 5.523 4.477 9.987 10 9.987z"/></symbol><symbol viewBox="-320 -320 1152 1152" id="oxygen-tube-2" xmlns="http://www.w3.org/2000/svg"><path d="M502 325.78h-18.139V106.573c0-39.244-31.946-71.171-71.213-71.171H391.56v-.119C391.56 19.688 378.866 7 363.265 7h-77.438c-15.603 0-28.296 12.688-28.296 28.283v.119h-76.868v-.119C180.662 19.688 167.969 7 152.367 7H74.929C59.326 7 46.633 19.688 46.633 35.283v.119H10c-5.523 0-10 4.478-10 10s4.477 10 10 10h36.633v.148c0 12.078 7.615 22.406 18.296 26.453v39.447c-26.041 16.283-43.399 45.2-43.399 78.097v91.104c0 5.522 4.477 10 10 10s10-4.478 10-10v-91.104c0-27.211 15.176-50.943 37.512-63.202a10.02 10.02 0 001.036-.547 71.7 71.7 0 0133.57-8.312 71.702 71.702 0 0133.573 8.313c.332.2.675.383 1.03.544 22.337 12.259 37.514 35.992 37.514 63.204v11.004h-63.154c-20.467 0-37.118 16.643-37.118 37.1v125.658c0 20.456 16.651 37.099 37.118 37.099h63.154v61.177c0 7.396-6.024 13.414-13.43 13.414H54.959c-7.405 0-13.43-6.018-13.43-13.414v-91.104c0-5.522-4.477-10-10-10s-10 4.478-10 10v91.104c0 18.425 14.997 33.414 33.43 33.414h117.376c18.433 0 33.43-14.989 33.43-33.414v-40.172h26.662v40.172c0 18.425 14.997 33.414 33.43 33.414h117.376c18.434 0 33.43-14.989 33.43-33.414V199.549c0-32.896-17.358-61.813-43.398-78.097V82.004c10.68-4.048 18.295-14.376 18.295-26.453v-.148h21.089c28.239 0 51.213 22.955 51.213 51.171V325.78h-18.139c-5.522 0-10 4.478-10 10v81.268c0 21.02 17.109 38.12 38.139 38.12S512 438.067 512 417.048V335.78c0-5.522-4.478-10-10-10zm-316.234 64.629h-63.154c-9.438 0-17.118-7.671-17.118-17.099V247.652c0-9.429 7.679-17.1 17.118-17.1h63.154zM277.53 35.283c0-4.567 3.722-8.283 8.296-8.283h77.438c4.574 0 8.295 3.716 8.295 8.283v20.268c0 4.567-3.721 8.283-8.295 8.283h-77.438c-4.574 0-8.296-3.716-8.296-8.283zm75.735 48.551v28.24a91.818 91.818 0 00-28.72-4.587 91.817 91.817 0 00-28.719 4.587v-28.24zm-210.898 28.24c-9.042-2.972-18.695-4.587-28.719-4.587s-19.677 1.615-28.719 4.587v-28.24h57.438zm18.295-56.523c0 4.567-3.721 8.283-8.295 8.283H74.929c-4.574 0-8.296-3.716-8.296-8.283V35.283c0-4.567 3.722-8.283 8.296-8.283h77.438c4.574 0 8.295 3.716 8.295 8.283zm71.765 355.863h-26.662v-53.757h26.662zm0-73.757h-26.662v-54.352h26.662zm0-74.351h-26.662v-53.757h26.662zm.546-73.757H205.22c-3.117-28.703-19.488-53.486-42.854-68.097V82.004c10.68-4.048 18.295-14.376 18.295-26.453v-.148h76.868v.148c0 12.078 7.615 22.406 18.296 26.453v39.448c-23.364 14.611-39.735 39.393-42.852 68.097zm163.69 200.86H333.48c-9.438 0-17.117-7.671-17.117-17.099V247.652c0-9.429 7.679-17.1 17.117-17.1h63.183zm0-190.86v11.004H333.48c-20.467 0-37.117 16.643-37.117 37.1v125.658c0 20.456 16.65 37.099 37.117 37.099h63.183v61.177c0 7.396-6.024 13.414-13.43 13.414H265.857c-7.405 0-13.43-6.018-13.43-13.414V199.549c0-27.212 15.177-50.945 37.515-63.204.355-.161.698-.344 1.03-.544a71.702 71.702 0 0133.573-8.314 71.687 71.687 0 0133.579 8.317c.328.198.667.379 1.019.538 22.34 12.259 37.52 35.993 37.52 63.207zM492 417.048c0 9.991-8.137 18.12-18.139 18.12s-18.139-8.129-18.139-18.12V345.78H492z"/><path d="M31.529 345.597c5.523 0 10-4.492 10-10.015s-4.477-10-10-10-10 4.478-10 10v.028c0 5.523 4.477 9.987 10 9.987z"/></symbol><symbol viewBox="-320 -320 1152 1152" id="oxygen-tube-3" xmlns="http://www.w3.org/2000/svg"><path d="M502 325.78h-18.139V106.573c0-39.244-31.946-71.171-71.213-71.171H391.56v-.119C391.56 19.688 378.866 7 363.265 7h-77.438c-15.603 0-28.296 12.688-28.296 28.283v.119h-76.868v-.119C180.662 19.688 167.969 7 152.367 7H74.929C59.326 7 46.633 19.688 46.633 35.283v.119H10c-5.523 0-10 4.478-10 10s4.477 10 10 10h36.633v.148c0 12.078 7.615 22.406 18.296 26.453v39.447c-26.041 16.283-43.399 45.2-43.399 78.097v91.104c0 5.522 4.477 10 10 10s10-4.478 10-10v-91.104c0-27.211 15.176-50.943 37.512-63.202a10.02 10.02 0 001.036-.547 71.7 71.7 0 0133.57-8.312 71.702 71.702 0 0133.573 8.313c.332.2.675.383 1.03.544 22.337 12.259 37.514 35.992 37.514 63.204v11.004h-63.154c-20.467 0-37.118 16.643-37.118 37.1v125.658c0 20.456 16.651 37.099 37.118 37.099h63.154v61.177c0 7.396-6.024 13.414-13.43 13.414H54.959c-7.405 0-13.43-6.018-13.43-13.414v-91.104c0-5.522-4.477-10-10-10s-10 4.478-10 10v91.104c0 18.425 14.997 33.414 33.43 33.414h117.376c18.433 0 33.43-14.989 33.43-33.414v-40.172h26.662v40.172c0 18.425 14.997 33.414 33.43 33.414h117.376c18.434 0 33.43-14.989 33.43-33.414V199.549c0-32.896-17.358-61.813-43.398-78.097V82.004c10.68-4.048 18.295-14.376 18.295-26.453v-.148h21.089c28.239 0 51.213 22.955 51.213 51.171V325.78h-18.139c-5.522 0-10 4.478-10 10v81.268c0 21.02 17.109 38.12 38.139 38.12S512 438.067 512 417.048V335.78c0-5.522-4.478-10-10-10zm-316.234 64.629h-63.154c-9.438 0-17.118-7.671-17.118-17.099V247.652c0-9.429 7.679-17.1 17.118-17.1h63.154zM277.53 35.283c0-4.567 3.722-8.283 8.296-8.283h77.438c4.574 0 8.295 3.716 8.295 8.283v20.268c0 4.567-3.721 8.283-8.295 8.283h-77.438c-4.574 0-8.296-3.716-8.296-8.283zm75.735 48.551v28.24a91.818 91.818 0 00-28.72-4.587 91.817 91.817 0 00-28.719 4.587v-28.24zm-210.898 28.24c-9.042-2.972-18.695-4.587-28.719-4.587s-19.677 1.615-28.719 4.587v-28.24h57.438zm18.295-56.523c0 4.567-3.721 8.283-8.295 8.283H74.929c-4.574 0-8.296-3.716-8.296-8.283V35.283c0-4.567 3.722-8.283 8.296-8.283h77.438c4.574 0 8.295 3.716 8.295 8.283zm71.765 355.863h-26.662v-53.757h26.662zm0-73.757h-26.662v-54.352h26.662zm0-74.351h-26.662v-53.757h26.662zm.546-73.757H205.22c-3.117-28.703-19.488-53.486-42.854-68.097V82.004c10.68-4.048 18.295-14.376 18.295-26.453v-.148h76.868v.148c0 12.078 7.615 22.406 18.296 26.453v39.448c-23.364 14.611-39.735 39.393-42.852 68.097zm163.69 200.86H333.48c-9.438 0-17.117-7.671-17.117-17.099V247.652c0-9.429 7.679-17.1 17.117-17.1h63.183zm0-190.86v11.004H333.48c-20.467 0-37.117 16.643-37.117 37.1v125.658c0 20.456 16.65 37.099 37.117 37.099h63.183v61.177c0 7.396-6.024 13.414-13.43 13.414H265.857c-7.405 0-13.43-6.018-13.43-13.414V199.549c0-27.212 15.177-50.945 37.515-63.204.355-.161.698-.344 1.03-.544a71.702 71.702 0 0133.573-8.314 71.687 71.687 0 0133.579 8.317c.328.198.667.379 1.019.538 22.34 12.259 37.52 35.993 37.52 63.207zM492 417.048c0 9.991-8.137 18.12-18.139 18.12s-18.139-8.129-18.139-18.12V345.78H492z"/><path d="M31.529 345.597c5.523 0 10-4.492 10-10.015s-4.477-10-10-10-10 4.478-10 10v.028c0 5.523 4.477 9.987 10 9.987z"/></symbol><symbol viewBox="-320 -320 1152 1152" id="oxygen-tube-4" xmlns="http://www.w3.org/2000/svg"><path d="M502 325.78h-18.139V106.573c0-39.244-31.946-71.171-71.213-71.171H391.56v-.119C391.56 19.688 378.866 7 363.265 7h-77.438c-15.603 0-28.296 12.688-28.296 28.283v.119h-76.868v-.119C180.662 19.688 167.969 7 152.367 7H74.929C59.326 7 46.633 19.688 46.633 35.283v.119H10c-5.523 0-10 4.478-10 10s4.477 10 10 10h36.633v.148c0 12.078 7.615 22.406 18.296 26.453v39.447c-26.041 16.283-43.399 45.2-43.399 78.097v91.104c0 5.522 4.477 10 10 10s10-4.478 10-10v-91.104c0-27.211 15.176-50.943 37.512-63.202a10.02 10.02 0 001.036-.547 71.7 71.7 0 0133.57-8.312 71.702 71.702 0 0133.573 8.313c.332.2.675.383 1.03.544 22.337 12.259 37.514 35.992 37.514 63.204v11.004h-63.154c-20.467 0-37.118 16.643-37.118 37.1v125.658c0 20.456 16.651 37.099 37.118 37.099h63.154v61.177c0 7.396-6.024 13.414-13.43 13.414H54.959c-7.405 0-13.43-6.018-13.43-13.414v-91.104c0-5.522-4.477-10-10-10s-10 4.478-10 10v91.104c0 18.425 14.997 33.414 33.43 33.414h117.376c18.433 0 33.43-14.989 33.43-33.414v-40.172h26.662v40.172c0 18.425 14.997 33.414 33.43 33.414h117.376c18.434 0 33.43-14.989 33.43-33.414V199.549c0-32.896-17.358-61.813-43.398-78.097V82.004c10.68-4.048 18.295-14.376 18.295-26.453v-.148h21.089c28.239 0 51.213 22.955 51.213 51.171V325.78h-18.139c-5.522 0-10 4.478-10 10v81.268c0 21.02 17.109 38.12 38.139 38.12S512 438.067 512 417.048V335.78c0-5.522-4.478-10-10-10zm-316.234 64.629h-63.154c-9.438 0-17.118-7.671-17.118-17.099V247.652c0-9.429 7.679-17.1 17.118-17.1h63.154zM277.53 35.283c0-4.567 3.722-8.283 8.296-8.283h77.438c4.574 0 8.295 3.716 8.295 8.283v20.268c0 4.567-3.721 8.283-8.295 8.283h-77.438c-4.574 0-8.296-3.716-8.296-8.283zm75.735 48.551v28.24a91.818 91.818 0 00-28.72-4.587 91.817 91.817 0 00-28.719 4.587v-28.24zm-210.898 28.24c-9.042-2.972-18.695-4.587-28.719-4.587s-19.677 1.615-28.719 4.587v-28.24h57.438zm18.295-56.523c0 4.567-3.721 8.283-8.295 8.283H74.929c-4.574 0-8.296-3.716-8.296-8.283V35.283c0-4.567 3.722-8.283 8.296-8.283h77.438c4.574 0 8.295 3.716 8.295 8.283zm71.765 355.863h-26.662v-53.757h26.662zm0-73.757h-26.662v-54.352h26.662zm0-74.351h-26.662v-53.757h26.662zm.546-73.757H205.22c-3.117-28.703-19.488-53.486-42.854-68.097V82.004c10.68-4.048 18.295-14.376 18.295-26.453v-.148h76.868v.148c0 12.078 7.615 22.406 18.296 26.453v39.448c-23.364 14.611-39.735 39.393-42.852 68.097zm163.69 200.86H333.48c-9.438 0-17.117-7.671-17.117-17.099V247.652c0-9.429 7.679-17.1 17.117-17.1h63.183zm0-190.86v11.004H333.48c-20.467 0-37.117 16.643-37.117 37.1v125.658c0 20.456 16.65 37.099 37.117 37.099h63.183v61.177c0 7.396-6.024 13.414-13.43 13.414H265.857c-7.405 0-13.43-6.018-13.43-13.414V199.549c0-27.212 15.177-50.945 37.515-63.204.355-.161.698-.344 1.03-.544a71.702 71.702 0 0133.573-8.314 71.687 71.687 0 0133.579 8.317c.328.198.667.379 1.019.538 22.34 12.259 37.52 35.993 37.52 63.207zM492 417.048c0 9.991-8.137 18.12-18.139 18.12s-18.139-8.129-18.139-18.12V345.78H492z"/><path d="M31.529 345.597c5.523 0 10-4.492 10-10.015s-4.477-10-10-10-10 4.478-10 10v.028c0 5.523 4.477 9.987 10 9.987z"/></symbol><symbol viewBox="-320 -320 1152 1152" id="oxygen-tube-5" xmlns="http://www.w3.org/2000/svg"><path d="M502 325.78h-18.139V106.573c0-39.244-31.946-71.171-71.213-71.171H391.56v-.119C391.56 19.688 378.866 7 363.265 7h-77.438c-15.603 0-28.296 12.688-28.296 28.283v.119h-76.868v-.119C180.662 19.688 167.969 7 152.367 7H74.929C59.326 7 46.633 19.688 46.633 35.283v.119H10c-5.523 0-10 4.478-10 10s4.477 10 10 10h36.633v.148c0 12.078 7.615 22.406 18.296 26.453v39.447c-26.041 16.283-43.399 45.2-43.399 78.097v91.104c0 5.522 4.477 10 10 10s10-4.478 10-10v-91.104c0-27.211 15.176-50.943 37.512-63.202a10.02 10.02 0 001.036-.547 71.7 71.7 0 0133.57-8.312 71.702 71.702 0 0133.573 8.313c.332.2.675.383 1.03.544 22.337 12.259 37.514 35.992 37.514 63.204v11.004h-63.154c-20.467 0-37.118 16.643-37.118 37.1v125.658c0 20.456 16.651 37.099 37.118 37.099h63.154v61.177c0 7.396-6.024 13.414-13.43 13.414H54.959c-7.405 0-13.43-6.018-13.43-13.414v-91.104c0-5.522-4.477-10-10-10s-10 4.478-10 10v91.104c0 18.425 14.997 33.414 33.43 33.414h117.376c18.433 0 33.43-14.989 33.43-33.414v-40.172h26.662v40.172c0 18.425 14.997 33.414 33.43 33.414h117.376c18.434 0 33.43-14.989 33.43-33.414V199.549c0-32.896-17.358-61.813-43.398-78.097V82.004c10.68-4.048 18.295-14.376 18.295-26.453v-.148h21.089c28.239 0 51.213 22.955 51.213 51.171V325.78h-18.139c-5.522 0-10 4.478-10 10v81.268c0 21.02 17.109 38.12 38.139 38.12S512 438.067 512 417.048V335.78c0-5.522-4.478-10-10-10zm-316.234 64.629h-63.154c-9.438 0-17.118-7.671-17.118-17.099V247.652c0-9.429 7.679-17.1 17.118-17.1h63.154zM277.53 35.283c0-4.567 3.722-8.283 8.296-8.283h77.438c4.574 0 8.295 3.716 8.295 8.283v20.268c0 4.567-3.721 8.283-8.295 8.283h-77.438c-4.574 0-8.296-3.716-8.296-8.283zm75.735 48.551v28.24a91.818 91.818 0 00-28.72-4.587 91.817 91.817 0 00-28.719 4.587v-28.24zm-210.898 28.24c-9.042-2.972-18.695-4.587-28.719-4.587s-19.677 1.615-28.719 4.587v-28.24h57.438zm18.295-56.523c0 4.567-3.721 8.283-8.295 8.283H74.929c-4.574 0-8.296-3.716-8.296-8.283V35.283c0-4.567 3.722-8.283 8.296-8.283h77.438c4.574 0 8.295 3.716 8.295 8.283zm71.765 355.863h-26.662v-53.757h26.662zm0-73.757h-26.662v-54.352h26.662zm0-74.351h-26.662v-53.757h26.662zm.546-73.757H205.22c-3.117-28.703-19.488-53.486-42.854-68.097V82.004c10.68-4.048 18.295-14.376 18.295-26.453v-.148h76.868v.148c0 12.078 7.615 22.406 18.296 26.453v39.448c-23.364 14.611-39.735 39.393-42.852 68.097zm163.69 200.86H333.48c-9.438 0-17.117-7.671-17.117-17.099V247.652c0-9.429 7.679-17.1 17.117-17.1h63.183zm0-190.86v11.004H333.48c-20.467 0-37.117 16.643-37.117 37.1v125.658c0 20.456 16.65 37.099 37.117 37.099h63.183v61.177c0 7.396-6.024 13.414-13.43 13.414H265.857c-7.405 0-13.43-6.018-13.43-13.414V199.549c0-27.212 15.177-50.945 37.515-63.204.355-.161.698-.344 1.03-.544a71.702 71.702 0 0133.573-8.314 71.687 71.687 0 0133.579 8.317c.328.198.667.379 1.019.538 22.34 12.259 37.52 35.993 37.52 63.207zM492 417.048c0 9.991-8.137 18.12-18.139 18.12s-18.139-8.129-18.139-18.12V345.78H492z"/><path d="M31.529 345.597c5.523 0 10-4.492 10-10.015s-4.477-10-10-10-10 4.478-10 10v.028c0 5.523 4.477 9.987 10 9.987z"/></symbol><symbol viewBox="-20 -20 72 72" id="sailing-boat-water" xmlns="http://www.w3.org/2000/svg"><path d="M21.671 23H22a4.002 4.002 0 003.999-4h-10V4h-1v15h-10c0 .876.282 1.686.759 2.345.311-.151.625-.29.94-.418a2.984 2.984 0 01-.529-.928h4.374a11.22 11.22 0 011.71 0h12.575a3.003 3.003 0 01-2.829 2h-3.911c1.221.576 2.417.899 3.582 1zM26 18l-9-9v9h9zm-2.5-1H18v-5.5l5.5 5.5zM8 9.5c3-5 6-5.5 6-5.5s-1 3.5-1 8 1 6 1 6H5s0-3.5 3-8.5zm.397 1.309C6.1 15.169 6.1 17 6.1 17h6.5s-.6-1.809-.6-5 .6-6.228.6-6.228-2.24 1.312-4.203 5.037zM3 24c.432-.319.901-.634 1.405-.934 4.032-2.406 8.441-2.965 12.82-.502 4.021 2.262 7.786 1.761 11.12-.452A13.232 13.232 0 0030 20.813v1.322c-.341.277-.709.549-1.102.81-3.622 2.405-7.778 2.957-12.164.491-4.022-2.262-8.065-1.75-11.817.489-.713.425-1.353.881-1.911 1.336L3 25.266V24zm2.979 1.232c3.592-1.665 7.43-1.813 11.245.333 3.481 1.958 6.771 1.846 9.755.344v1.109c-3.143 1.433-6.616 1.46-10.245-.581-3.645-2.05-7.307-1.822-10.755-.094v-1.11z"/></symbol><symbol viewBox="-20 -20 72 72" id="settings" xmlns="http://www.w3.org/2000/svg"><path d="M30.391 12.68l-3.064-.614a12.098 12.098 0 00-.537-1.289l1.736-2.604a1.999 1.999 0 00-.25-2.523l-1.924-1.924a1.996 1.996 0 00-2.523-.25l-2.604 1.735a12.09 12.09 0 00-1.291-.536L19.32 1.61A1.998 1.998 0 0017.359.002h-2.72a2 2 0 00-1.961 1.608l-.614 3.065c-.443.154-.873.335-1.289.536L8.172 3.476a1.996 1.996 0 00-2.524.25L3.725 5.65a2 2 0 00-.25 2.523l1.735 2.604c-.202.417-.382.847-.536 1.29l-3.066.613A2 2 0 000 14.641v2.72a2 2 0 001.608 1.961l3.065.615c.154.443.335.873.536 1.289L3.475 23.83a1.999 1.999 0 00.25 2.523l1.924 1.924a1.996 1.996 0 002.523.25l2.604-1.736c.417.203.847.383 1.29.537l.613 3.064a2 2 0 001.961 1.609h2.72a2 2 0 001.961-1.609l.615-3.064c.443-.154.873-.336 1.289-.537l2.604 1.736a1.998 1.998 0 002.523-.25l1.924-1.924a2 2 0 00.25-2.523l-1.736-2.604c.203-.418.383-.848.537-1.291l3.064-.613A2 2 0 0032 17.361v-2.72c0-.953-.674-1.774-1.609-1.961zm-3.457 5.295a1.997 1.997 0 00-1.496 1.305c-.129.369-.279.727-.447 1.074a1.996 1.996 0 00.135 1.982l1.736 2.604-1.924 1.924-2.604-1.736a1.997 1.997 0 00-1.98-.137c-.348.168-.705.32-1.076.449a1.998 1.998 0 00-1.303 1.496l-.615 3.066h-2.72l-.613-3.066a1.997 1.997 0 00-1.304-1.496 10.17 10.17 0 01-1.075-.447 1.994 1.994 0 00-1.981.135l-2.604 1.736-1.924-1.924 1.735-2.604c.393-.59.444-1.344.137-1.98a10.106 10.106 0 01-.448-1.076 2 2 0 00-1.496-1.303l-3.065-.615L2 14.641l3.066-.613a1.999 1.999 0 001.496-1.304c.129-.369.278-.728.447-1.075a1.995 1.995 0 00-.136-1.981L5.139 7.064 7.062 5.14l2.604 1.735a1.997 1.997 0 001.98.137 10.09 10.09 0 011.075-.448 1.999 1.999 0 001.304-1.496l.614-3.065 2.72-.001.613 3.066a1.998 1.998 0 001.305 1.496c.369.129.727.278 1.074.447a1.998 1.998 0 001.982-.136l2.604-1.735 1.924 1.924-1.736 2.604a2.006 2.006 0 00-.137 1.98c.168.347.32.705.449 1.075a1.997 1.997 0 001.496 1.304l3.064.614.003 2.72-3.066.614zM16 9.001A7 7 0 1016.001 23 7 7 0 0016 9zm0 13.126c-3.382 0-6.125-2.744-6.125-6.125S12.618 9.877 16 9.877a6.127 6.127 0 016.125 6.125A6.127 6.127 0 0116 22.127zm0-10.126c-2.21 0-4 1.79-4 4s1.79 4 4 4a4 4 0 000-8zm0 7.001a3.001 3.001 0 010-6 3.001 3.001 0 010 6z"/></symbol><symbol viewBox="-20 -20 72 72" id="shield" xmlns="http://www.w3.org/2000/svg"><path d="M30 0L16 4 2 0s-.141 1.616 0 4l14 4.378L30 4c.141-2.384 0-4 0-4zM2.256 6.097C3.006 13.931 5.803 27.104 16 32c10.197-4.896 12.995-18.069 13.744-25.903L16 11.264 2.256 6.097z"/></symbol><symbol viewBox="-320 -320 1152 1152" id="smartphone" xmlns="http://www.w3.org/2000/svg"><path d="M298.667 25.6h-85.333a8.536 8.536 0 00-8.533 8.533 8.536 8.536 0 008.533 8.533h85.333a8.536 8.536 0 008.533-8.533 8.536 8.536 0 00-8.533-8.533zm59.733 0h-8.533a8.536 8.536 0 00-8.533 8.533 8.536 8.536 0 008.533 8.533h8.533a8.536 8.536 0 008.533-8.533A8.536 8.536 0 00358.4 25.6zm-91.802 409.6H245.41c-12.979 0-23.543 10.564-23.543 23.543v4.122c0 12.979 10.564 23.535 23.535 23.535h21.188c12.979 0 23.543-10.556 23.543-23.535v-4.122c0-12.979-10.564-23.543-23.535-23.543zm6.469 27.665a6.475 6.475 0 01-6.468 6.468H245.41c-3.575 0-6.477-2.901-6.477-6.468v-4.122a6.48 6.48 0 016.477-6.477h21.18a6.478 6.478 0 016.477 6.477v4.122z"/><path d="M370.227 0H141.781c-17.007 0-30.848 13.841-30.848 30.848v450.304c0 17.007 13.841 30.848 30.848 30.848h228.437c17.007 0 30.848-13.841 30.848-30.839V30.848C401.067 13.841 387.226 0 370.227 0zM384 481.152c0 7.595-6.178 13.781-13.773 13.781H141.781c-7.603 0-13.781-6.187-13.781-13.773V30.848c0-7.595 6.178-13.781 13.781-13.781h228.437c7.603 0 13.781 6.187 13.781 13.781v450.304z"/><path d="M392.533 51.2H119.467a8.536 8.536 0 00-8.533 8.533v358.4a8.536 8.536 0 008.533 8.533h273.067a8.536 8.536 0 008.533-8.533v-358.4c0-4.71-3.823-8.533-8.534-8.533zM384 409.6H128V68.267h256V409.6z"/></symbol><symbol viewBox="-10.62 -10.62 38.25 38.25" id="star" xmlns="http://www.w3.org/2000/svg"><path d="M16.647 7.017h-6.225L8.5 1.097l-1.923 5.92H.353l5.035 3.658-1.922 5.92L8.5 12.936l5.035 3.659-1.922-5.92 5.034-3.658zm-5.014 6.96L8.5 11.699l-3.133 2.277 1.197-3.685-3.133-2.274h3.873L8.5 4.333l1.196 3.684h3.873l-3.133 2.275 1.197 3.685z"/></symbol><symbol viewBox="-10.62 -10.62 38.25 38.25" id="timer" xmlns="http://www.w3.org/2000/svg"><path d="M9 2.025V1h1.5V0h-4v1H8v1.025c-3.902.26-7 3.508-7 7.475C1 13.636 4.364 17 8.5 17S16 13.636 16 9.5c0-3.967-3.098-7.215-7-7.475zM8.5 16C4.916 16 2 13.084 2 9.5S4.916 3 8.5 3 15 5.916 15 9.5 12.084 16 8.5 16zM9 9h4v1H8V6h1v3z"/></symbol><symbol viewBox="-10.62 -10.62 38.25 38.25" id="twitter" xmlns="http://www.w3.org/2000/svg"><path d="M17 3.236a6.958 6.958 0 01-2.007.539 3.47 3.47 0 001.532-1.919 6.865 6.865 0 01-2.211.841 3.472 3.472 0 00-2.545-1.1A3.482 3.482 0 008.285 5.08c0 .27.033.54.086.799a9.897 9.897 0 01-7.184-3.646 3.457 3.457 0 00-.475 1.759c0 1.208.615 2.275 1.553 2.901A3.53 3.53 0 01.69 6.451v.043a3.485 3.485 0 002.794 3.419 3.705 3.705 0 01-.917.118c-.226 0-.442-.021-.657-.054a3.491 3.491 0 003.257 2.417 6.982 6.982 0 01-4.326 1.488c-.291 0-.561-.01-.841-.042a9.85 9.85 0 005.351 1.564c6.407 0 9.913-5.307 9.913-9.912 0-.152 0-.302-.01-.454A7.527 7.527 0 0017 3.236zm-2.737 2.255c0 3.701-2.765 8.912-8.913 8.912-.492 0-.979-.04-1.458-.118a8.047 8.047 0 001.891-1.104 1.001 1.001 0 00-.596-1.787 2.512 2.512 0 01-1.467-.509l.012-.003a1 1 0 00-.049-1.949 2.464 2.464 0 01-1.559-1.046l.104.005h.038A1 1 0 002.82 6.06a2.481 2.481 0 01-1.098-1.841 10.943 10.943 0 006.649 2.659 1.001 1.001 0 00.979-1.203 2.912 2.912 0 01-.066-.595 2.486 2.486 0 012.484-2.483c.698 0 1.342.278 1.815.784a.997.997 0 00.417.266.994.994 0 00.373.914 1 1 0 00-.119.544c.01.129.009.257.009.386z"/></symbol><symbol viewBox="-10.62 -10.62 38.25 38.25" id="user" xmlns="http://www.w3.org/2000/svg"><path d="M17 16.488c-.063-2.687-2.778-4.999-6.521-5.609V9.505c.492-.473.842-1.207 1.071-1.833.332-.166.624-.536.794-1.033.238-.688.146-1.323-.206-1.629.028-.238.046-.481.015-.723-.079-.663.065-1.038.194-1.368.106-.277.229-.591.106-.945C12.011.701 10.726 0 8.835 0l-.264.005C7.258.052 6.864.605 6.6 1.12a2.502 2.502 0 00-.077.151c-1.712.153-1.697 1.569-1.684 2.707l.003.369c0 .205.009.419.026.639-.425.3-.504 1.005-.179 1.737.185.415.452.729.749.892.243.674.625 1.47 1.179 1.965v1.283C2.819 11.452.063 13.77 0 16.488L-.012 17h17.023L17 16.488zM1.054 16c.392-2.094 2.859-3.821 6.122-4.204l.441-.052V9.078l-.216-.15c-.393-.272-.791-.947-1.09-1.851l-.083-.281-.294-.051c-.053-.019-.208-.153-.33-.428a1.274 1.274 0 01-.112-.415l.51.143-.096-.749a7.591 7.591 0 01-.064-.95l-.003-.38c-.015-1.341.051-1.634.773-1.699.545-.048.752-.449.876-.689.15-.292.28-.543 1.12-.574L8.835 1c.829 0 2.279.169 2.669 1.282 0 .043-.052.177-.09.275-.145.374-.364.939-.254 1.853.024.188-.007.424-.04.675l-.089.805.441-.048c.008.104-.004.269-.075.472-.097.289-.242.438-.237.454h-.36l-.114.342c-.283.853-.65 1.497-1.009 1.768l-.198.15v2.726l.438.055c3.211.401 5.641 2.123 6.03 4.192H1.054z"/></symbol><symbol viewBox="-15 -15 54 54" id="user-add-outline" xmlns="http://www.w3.org/2000/svg"><path d="M21 14h-6a1 1 0 110-2h6a1 1 0 110 2z"/><path d="M18 17a1 1 0 01-1-1v-6a1 1 0 112 0v6a1 1 0 01-1 1zM9 6c1.654 0 3 1.346 3 3s-1.346 3-3 3-3-1.346-3-3 1.346-3 3-3zm0-2C6.236 4 4 6.238 4 9s2.236 5 5 5 5-2.238 5-5-2.236-5-5-5zm0 13c2.021 0 3.301.771 3.783 1.445C12.1 18.705 10.814 19 9 19c-1.984 0-3.206-.305-3.818-.542C5.641 17.743 6.959 17 9 17zm0-2c-3.75 0-6 2-6 4 0 1 2.25 2 6 2 3.518 0 6-1 6-2s-2.354-4-6-4z"/></symbol><symbol viewBox="-20 -20 72 72" id="world" xmlns="http://www.w3.org/2000/svg"><path d="M15.5 0C6.939 0 0 6.939 0 15.5S6.939 31 15.5 31 31 24.061 31 15.5 24.061 0 15.5 0zm13.475 15h-5.996c-.055-2.215-.449-4.331-1.148-6.268a16.334 16.334 0 003.736-2.197A13.433 13.433 0 0128.975 15zM14.947 28.972c-1.662-1.384-3.056-3.181-4.076-5.268A15.497 15.497 0 0115 23.025v5.949l-.053-.002zm1.104-26.944c1.886 1.57 3.425 3.673 4.466 6.126-1.426.487-2.941.77-4.518.82V2.025l.052.003zm1.666.17a13.463 13.463 0 017.164 3.614 15.297 15.297 0 01-3.428 1.998c-.91-2.157-2.187-4.064-3.736-5.612zM15 2.025v6.949a15.492 15.492 0 01-4.518-.82c1.041-2.453 2.58-4.556 4.466-6.126L15 2.025zM9.546 7.811a15.335 15.335 0 01-3.427-1.998 13.46 13.46 0 017.164-3.614c-1.55 1.547-2.826 3.454-3.737 5.612zm.559 1.265c1.542.535 3.185.847 4.895.899V15H9.021c.054-2.094.425-4.095 1.084-5.924zM15 16v6.025a16.411 16.411 0 00-4.539.769A18.785 18.785 0 019.021 16H15zm-1.717 12.802a13.431 13.431 0 01-6.545-3.052 15.199 15.199 0 013.188-1.7 17.317 17.317 0 003.357 4.752zm2.717.173v-5.949c1.432.046 2.82.27 4.129.679-1.021 2.087-2.414 3.884-4.076 5.268l-.053.002zm5.074-4.925a15.32 15.32 0 013.188 1.7 13.44 13.44 0 01-6.545 3.052 17.338 17.338 0 003.357-4.752zm-.535-1.256A16.424 16.424 0 0016 22.025V16h5.979a18.806 18.806 0 01-1.44 6.794zM16 15V9.975a16.44 16.44 0 004.895-.898c.658 1.829 1.029 3.83 1.084 5.924H16zM5.434 6.535a16.35 16.35 0 003.735 2.197C8.47 10.669 8.076 12.785 8.021 15H2.025a13.429 13.429 0 013.409-8.465zM2.025 16h5.996a19.724 19.724 0 001.503 7.137 16.23 16.23 0 00-3.538 1.931A13.463 13.463 0 012.025 16zm22.989 9.067a16.256 16.256 0 00-3.539-1.931 19.725 19.725 0 001.504-7.137h5.996a13.464 13.464 0 01-3.961 9.068z"/></symbol></svg>